<svg xmlns="http://www.w3.org/2000/svg" width="18.77" height="11.262" viewBox="0 0 18.77 11.262">
  <path id="Icon_awesome-bed" data-name="Icon awesome-bed" d="M5.162,10.131A2.346,2.346,0,1,0,2.815,7.785,2.349,2.349,0,0,0,5.162,10.131ZM15.485,6.377H8.916a.469.469,0,0,0-.469.469v4.223H1.877v-6.1A.469.469,0,0,0,1.408,4.5H.469A.469.469,0,0,0,0,4.969V15.292a.469.469,0,0,0,.469.469h.938a.469.469,0,0,0,.469-.469V13.885H16.893v1.408a.469.469,0,0,0,.469.469H18.3a.469.469,0,0,0,.469-.469V9.662A3.285,3.285,0,0,0,15.485,6.377Z" transform="translate(0 -4.5)" fill="#ba1e74"/>
</svg>
