<svg xmlns="http://www.w3.org/2000/svg" width="18.352" height="14.682" viewBox="0 0 18.352 14.682">
  <path id="Icon_awesome-car-alt" data-name="Icon awesome-car-alt" d="M16.771,10.171,16.342,9.1,15.58,7.192A4.261,4.261,0,0,0,11.6,4.5H6.748A4.262,4.262,0,0,0,2.772,7.192L2.01,9.1l-.43,1.074A2.442,2.442,0,0,0,0,12.453v1.835a2.427,2.427,0,0,0,.612,1.6v2.067a1.224,1.224,0,0,0,1.223,1.223H3.059a1.224,1.224,0,0,0,1.223-1.223V16.735H14.07v1.223a1.224,1.224,0,0,0,1.223,1.223h1.223a1.224,1.224,0,0,0,1.223-1.223V15.891a2.426,2.426,0,0,0,.612-1.6V12.453A2.442,2.442,0,0,0,16.771,10.171ZM5.044,8.1a1.835,1.835,0,0,1,1.7-1.154H11.6a1.835,1.835,0,0,1,1.7,1.154l.762,1.905H4.282L5.044,8.1ZM3.059,14.28a1.154,1.154,0,0,1-1.223-1.22,1.154,1.154,0,0,1,1.223-1.22A2.354,2.354,0,0,1,4.894,13.67C4.894,14.4,3.793,14.28,3.059,14.28Zm12.235,0c-.734,0-1.835.122-1.835-.61a2.354,2.354,0,0,1,1.835-1.829,1.154,1.154,0,0,1,1.223,1.22,1.154,1.154,0,0,1-1.223,1.22Z" transform="translate(0 -4.5)" fill="#707070"/>
</svg>
