<svg xmlns="http://www.w3.org/2000/svg" width="58.211" height="20.428" viewBox="0 0 58.211 20.428">
  <g id="Group_1124" data-name="Group 1124" transform="translate(-24.681 -6.572)">
    <g id="Group_1127" data-name="Group 1127" transform="translate(12.681)">
      <path id="Icon_awesome-gripfire" data-name="Icon awesome-gripfire" d="M4.825,9.946c0-2.36,3.361-3.918,3.361-6.492A4.364,4.364,0,0,0,6.935.563a2.682,2.682,0,0,1,.019.32c0,2.946-4.7,4.922-4.7,8.59,0,1.593,1.03,2.533,2.127,3.464,2.082,1.494,2.5,2.284,2.5,2.77a5.368,5.368,0,0,1-.154.713,2.349,2.349,0,0,0,.56-1.484,5.175,5.175,0,0,0-1.414-2.766A3.918,3.918,0,0,1,4.825,9.946ZM11.391,8.7A7.051,7.051,0,0,0,8.362,4.512l.128.23A1.276,1.276,0,0,1,8.6,5.29c0,1.43-1.733,3.556-1.81,3.732a1.275,1.275,0,0,0-.1.505,2.052,2.052,0,0,0,.572,1.346c.077,0,1.81-1.772,1.858-2.8a2.181,2.181,0,0,1,.291,1.068,6.862,6.862,0,0,1-1.337,3.1,4.643,4.643,0,0,0,1.135,1.7c.032,0,.07-.045.1-.077a6.5,6.5,0,0,0,2.152-4.375,4.467,4.467,0,0,0-.07-.787Z" transform="translate(58.75 6.01)" fill="#fff"/>
      
    </g>
  </g>
</svg>
