<svg xmlns="http://www.w3.org/2000/svg" width="11.312" height="19.475" viewBox="0 0 11.312 19.475">
  <path id="Icon_awesome-gripfire" data-name="Icon awesome-gripfire" d="M5.412,12.087c0-2.9,4.128-4.812,4.128-7.974A5.36,5.36,0,0,0,8,.563a3.294,3.294,0,0,1,.024.393C8.028,4.573,2.25,7,2.25,11.506c0,1.956,1.265,3.111,2.612,4.254,2.557,1.834,3.068,2.8,3.068,3.4a6.592,6.592,0,0,1-.189.876,2.885,2.885,0,0,0,.687-1.823c0-1.163-.852-2.211-1.736-3.4a4.812,4.812,0,0,1-1.281-2.73Zm8.064-1.532a8.66,8.66,0,0,0-3.72-5.142l.157.283a1.567,1.567,0,0,1,.134.672c0,1.756-2.129,4.368-2.223,4.584a1.565,1.565,0,0,0-.126.621,2.521,2.521,0,0,0,.7,1.654c.094,0,2.223-2.176,2.282-3.445a2.678,2.678,0,0,1,.357,1.312C11.041,12.712,9.4,14.9,9.4,14.9a5.7,5.7,0,0,0,1.394,2.09c.039,0,.086-.055.126-.094a7.985,7.985,0,0,0,2.643-5.373,5.486,5.486,0,0,0-.086-.966Z" transform="translate(-2.25 -0.563)" fill="#ba1e74"/>
</svg>
