<svg xmlns="http://www.w3.org/2000/svg" width="86.172" height="450.767" viewBox="0 0 86.172 450.767">
  <path id="Lantern-01" d="M638.169,445.789a2.5,2.5,0,1,1-1.776.721,2.489,2.489,0,0,1,1.776-.721Zm-2.418-121.122c-5.5.084-11.081.467-16.646.59q-.243,1.851-.518,3.7,18.015.006,36.027.076-.16-2.19-.3-4.381C648.131,324.593,641.942,324.572,635.751,324.667Zm18.128-26.088c3.572,7.739,3.24,16.191,2.353,24.569q7.727.064,15.446.209c3.49-5.883,6.871-13.027,3.457-19.6-2.82-5.425-7.762-8.964-13.281-11.379-7.8-3.415-18.577-4.517-22.3-13.024.621,8.785,10.846,11.677,14.325,19.225ZM604.01,323.148a101.22,101.22,0,0,0,13.956.642c-1.3-8.582-2.4-18.7,3.067-26.3,4.394-6.11,11.671-10.458,15.059-17.206-2.263,2.225-5.638,3.874-7.976,5.03-5.221,2.582-10.8,4.46-15.881,7.326-5.233,2.95-10.907,7.1-12.693,13.154a17,17,0,0,0,4.418,17.28A.636.636,0,0,1,604.01,323.148Zm67.9,1.709c-5.457-.064-10.913-.144-16.369-.2q.18,2.187.329,4.379,10.086.038,20.172.093c-.022-1.417.094-2.858.174-4.269a33.434,33.434,0,0,1-3.911-.13.641.641,0,0,1-.4.127Zm-46.733-30.424C617.2,303,617.83,313.026,619.2,323.727v.04c6.521-.127,13.067-.563,19.537-.624q8.066-.075,16.129-.007c.975-9.6,1.651-20.891-5.287-28.379-4.374-4.721-10.8-8.691-11.66-15.387C635.374,285.574,629.7,289.563,625.172,294.433ZM626.4,407.047q11.827-.1,23.659-.034c-.02-.837-.03-1.675-.024-2.513q-11.791.108-23.6-.037C626.432,405.325,626.417,406.186,626.4,407.047Zm39.341.173c0-1,.047-2.007.086-3.006-4.826.143-9.666.221-14.51.273q.007,1.267-.026,2.535c4.82.036,9.638.092,14.449.2Zm-56.475.016q7.967-.109,15.952-.182c-.018-.867-.034-1.734-.038-2.6q-8.025-.1-16.022-.261.063,1.518.107,3.043Zm41.634,1.529q-12.291.086-24.591-.032c-3.133,7.265-1.945,15.508,2.339,22.087,2.977,4.572,8.741,8.278,9.685,13.883v.037h.02c.817-5.789,5.026-9.381,8.841-13.45,6.09-6.5,6.892-14.356,3.706-22.525Zm-13.952,36.1c-.875-4.279-4.81-6.838-7.323-10.169a35.994,35.994,0,0,1-4.853-8.517,23.049,23.049,0,0,1,.238-17.456q-7.665-.069-15.317-.175c-3.743,5.445-5.779,11.061-1.715,17.108,3.186,4.742,7.06,6.892,12.574,8.088,7.126,1.546,13.7,3.781,16.306,11.131.028,0,.06,0,.089-.009Zm-36.915-119.83c.079,1.3.152,2.606.227,3.91,5.7-.006,11.392.007,17.089.008q.264-1.842.559-3.682a82.512,82.512,0,0,1-14.175-.808.7.7,0,0,1-.261.074c-.821.063-1.643.07-2.464.079-.406,0-.825-.02-1.231.009q.423-.077.255.411Zm-5.17,5.209a172.22,172.22,0,0,0,3.266,18.079c1.57,5.917,3.423,11.975,4.624,18,2.446,12.255,4.6,24.227,6.384,36.592.863-.018,1.732-.028,2.6-.045-2.913-14.355-5.9-28.7-8.665-43.087a19.064,19.064,0,0,1,.033-7.644c.427-2.4-2.488-3.3-2.625-5.448a6.09,6.09,0,0,1,2.077-4.717,24.888,24.888,0,0,0,5.152-7.823c.311-.761,1.527-.549,1.2.277-.007.017-.015.033-.022.051,2.233,3.969,8.9,4.755,9.947,9.45a5.113,5.113,0,0,1,.158,2.517c-.3,1.1-1.755,3.513-1.064,4.511a12.688,12.688,0,0,1,2.127,6.762,414.091,414.091,0,0,0,5.293,44.815.6.6,0,0,1,0,.12c1.061-.013,2.123-.017,3.185-.028a.077.077,0,0,1,0-.015c-.686-9.131-1.346-18.263-2.033-27.393a79.087,79.087,0,0,0-2.079-12.15c-.636-2.747-1.268-5.793-.53-8.6a11.867,11.867,0,0,1,1.777-3.951c1.326-1.923.409-1.783-1.036-2.839a2.991,2.991,0,0,1-1.264-3.412c.323-1.88,2.85-2.893,4.362-3.5,3.283-1.322,6.708-2.437,8.665-5.416-.057-.059-.117-.111-.173-.17a.639.639,0,0,1,.81-.96c.006-.013.015-.024.021-.038a.589.589,0,0,1,1.094.43c-.054.133-.13.252-.188.382A30.536,30.536,0,0,0,647.1,340.6c1.588.617,3.226,1.731,3.566,3.552a5.564,5.564,0,0,1-1.143,5.018c-.244.281,1.7,5.9,1.774,6.745.275,3.165-.386,6.411-.775,9.538-.533,4.269-1.032,8.543-1.464,12.823q-1.226,12.13-1.953,24.3h0c.739,0,1.477.018,2.215.023a.656.656,0,0,1-.012-.192q1.845-14.231,3.706-28.459c1.031-7.908,1.21-16.562,3.693-24.176a.645.645,0,0,1,.559-.461c-.146-1.514-1.378-2.786-1.308-4.5.057-1.406,1.058-2.848,1.786-3.97,2.127-3.282,6.442-3.322,8.665-6.622a.579.579,0,0,1,1.084.364.6.6,0,0,1,.017.169c-.286,3.436,4.16,3.426,5.626,5.514a7.919,7.919,0,0,1,1.433,3.439c.475,2.693-1.049,5.28-2.769,7.233a.558.558,0,0,1,.1.13c1.393,2.937,1.058,5.91.466,9.027q-1.331,7-2.771,13.969-3.01,14.441-6.543,28.763c.762.018,1.526.03,2.287.052,3.465-12.018,5.588-24.463,8.162-36.693,2.5-11.859,4.866-23.752,7.532-35.573-28.677.6-57.516.448-86.172-.368Zm70.483,78.333c-4.343.091-8.692.142-13.043.177,2.2,5.513,2.969,12.526.024,17.879-2.553,4.641-7.363,7.969-10.3,12.326,3.125-2.9,8.176-4.433,11.8-5.691,4.4-1.526,9.97-3.609,12.9-7.484,3.707-4.9,2.486-12.648-1.31-17.059a.54.54,0,0,1-.072-.147ZM637.41,264.767a8.572,8.572,0,1,1-8.557,8.572A8.572,8.572,0,0,1,637.41,264.767Zm.01,3.2a5.357,5.357,0,1,1-5.357,5.357A5.357,5.357,0,0,1,637.42,267.967ZM636.348,0h2.124V265.01h-2.124Z" transform="translate(-594.862)" fill="#18305c" fill-rule="evenodd" opacity="0.6"/>
</svg>
