<svg xmlns="http://www.w3.org/2000/svg" xmlns:xlink="http://www.w3.org/1999/xlink" width="136.888" height="121.503" viewBox="0 0 136.888 121.503">
  <defs>
    <filter id="Icon_ionic-ios-happy" x="37.604" y="0" width="77.816" height="77.816" filterUnits="userSpaceOnUse">
      <feOffset dy="3" input="SourceAlpha"/>
      <feGaussianBlur stdDeviation="3" result="blur"/>
      <feFlood flood-opacity="0.161"/>
      <feComposite operator="in" in2="blur"/>
      <feComposite in="SourceGraphic"/>
    </filter>
    <filter id="Path_13268" x="0" y="57.2" width="136.888" height="64.302" filterUnits="userSpaceOnUse">
      <feOffset dy="3" input="SourceAlpha"/>
      <feGaussianBlur stdDeviation="3" result="blur-2"/>
      <feFlood flood-opacity="0.161"/>
      <feComposite operator="in" in2="blur-2"/>
      <feComposite in="SourceGraphic"/>
    </filter>
  </defs>
  <g id="Group_3861" data-name="Group 3861" transform="translate(9 6)">
    <g transform="matrix(1, 0, 0, 1, -9, -6)" filter="url(#Icon_ionic-ios-happy)">
      <path id="Icon_ionic-ios-happy-2" data-name="Icon ionic-ios-happy" d="M33.283,3.375A29.908,29.908,0,1,0,63.191,33.283,29.9,29.9,0,0,0,33.283,3.375ZM43.636,25.231a3.451,3.451,0,1,1-3.451,3.451A3.443,3.443,0,0,1,43.636,25.231Zm-20.706,0a3.451,3.451,0,1,1-3.451,3.451A3.443,3.443,0,0,1,22.93,25.231Zm10.353,24.3A14.117,14.117,0,0,1,19.738,39.366a1.155,1.155,0,0,1,1.107-1.481H45.707a1.157,1.157,0,0,1,1.107,1.481A14.087,14.087,0,0,1,33.283,49.531Z" transform="translate(43.23 2.62)" fill="#fff"/>
    </g>
    <g transform="matrix(1, 0, 0, 1, -9, -6)" filter="url(#Path_13268)">
      <path id="Path_13268-2" data-name="Path 13268" d="M148.807,296.987c-6.342.356-12.042-1.737-17.565-4.536-1.6-.819-3.229-1.582-4.851-2.352a2.315,2.315,0,0,0-1.1-.348,1.5,1.5,0,0,0-1.016.57,1.613,1.613,0,0,0,.02,1.073,1.061,1.061,0,0,0,.447.508c3.8,2.68,7.572,5.441,12.128,6.707a49.949,49.949,0,0,0,15.463,1.5c4.4-.18,8.358-1.721,12.291-3.462,9.255-4.1,18.544-8.166,27.717-12.455a10.115,10.115,0,0,1,8.108-.7,5.515,5.515,0,0,1,3.962,4.781,5.877,5.877,0,0,1-2.692,6.109c-7.711,4.851-15.36,9.768-23.534,13.787a114.383,114.383,0,0,1-24.739,9.256,22.58,22.58,0,0,1-11.423-.533q-13.521-3.823-27.07-7.674a12.191,12.191,0,0,0-8.067.2c-2.249.881-4.507,1.717-6.789,2.561a7.947,7.947,0,0,1-4.421.545c-2.954-.59-4.4-2.639-5.08-5.371-1.086-4.376-2.11-8.768-3.159-13.156-.549-2.286-1.131-4.568-1.639-6.867-.873-4.1,1-7.174,5.044-8.162,8.51-2.073,17.044-4.044,25.558-6.1a31.918,31.918,0,0,1,9.6-1.2,16.9,16.9,0,0,1,10.96,4.671,19.7,19.7,0,0,0,12.238,5.367c2.831.279,5.675.41,8.518.578a6.023,6.023,0,0,1,5.838,5.478c.119.971.2,1.95.234,2.929a4.074,4.074,0,0,1-2.606,4.1,22.084,22.084,0,0,1-7.572,1.9C152.011,296.827,150.409,296.889,148.807,296.987Z" transform="translate(-76.59 -208.42)" fill="#fff"/>
    </g>
  </g>
</svg>
