<svg xmlns="http://www.w3.org/2000/svg" xmlns:xlink="http://www.w3.org/1999/xlink" width="136.888" height="116.615" viewBox="0 0 136.888 116.615">
  <defs>
    <filter id="Path_13257" x="50.562" y="0" width="75.443" height="69.048" filterUnits="userSpaceOnUse">
      <feOffset dy="3" input="SourceAlpha"/>
      <feGaussianBlur stdDeviation="3" result="blur"/>
      <feFlood flood-opacity="0.161"/>
      <feComposite operator="in" in2="blur"/>
      <feComposite in="SourceGraphic"/>
    </filter>
    <filter id="Path_13258" x="45.371" y="19.667" width="58.667" height="54.164" filterUnits="userSpaceOnUse">
      <feOffset dy="3" input="SourceAlpha"/>
      <feGaussianBlur stdDeviation="3" result="blur-2"/>
      <feFlood flood-opacity="0.161"/>
      <feComposite operator="in" in2="blur-2"/>
      <feComposite in="SourceGraphic"/>
    </filter>
    <filter id="Path_13269" x="0" y="52.313" width="136.888" height="64.302" filterUnits="userSpaceOnUse">
      <feOffset dy="3" input="SourceAlpha"/>
      <feGaussianBlur stdDeviation="3" result="blur-3"/>
      <feFlood flood-opacity="0.161"/>
      <feComposite operator="in" in2="blur-3"/>
      <feComposite in="SourceGraphic"/>
    </filter>
  </defs>
  <g id="Group_3184" data-name="Group 3184" transform="translate(9 6)">
    <g id="Layer_2" data-name="Layer 2" transform="translate(45.371 0)">
      <g id="Layer_1" data-name="Layer 1" transform="translate(0)">
        <path id="Path_13256" data-name="Path 13256" d="M44.475,47.778a10.733,10.733,0,0,0-14.813,1.09l-1.585,1.65L26.51,48.881a10.9,10.9,0,0,0-12.82-2.454,16.068,16.068,0,0,0,3.722,6.392L36.954,73.3l8.316-8.75a11.725,11.725,0,0,0-.795-16.767Z" transform="translate(-7.753 -25.629)" fill="#fff"/>
        <g transform="matrix(1, 0, 0, 1, -54.37, -6)" filter="url(#Path_13257)">
          <path id="Path_13257-2" data-name="Path 13257" d="M63.83,3.473C57.689-1.83,48.539-.87,42.916,5.027L40.684,7.381l-2.21-2.332C32.849-.87,23.708-1.83,17.559,3.473a16.437,16.437,0,0,0-5.268,15.581c.326-.152.66-.3,1-.434a11.934,11.934,0,0,1,4.086-.712,12.633,12.633,0,0,1,5.051,1.055A13.258,13.258,0,0,1,26.774,22l.308.326.33-.343a13.163,13.163,0,0,1,4.343-3.04A12.672,12.672,0,0,1,36.8,17.89a12.042,12.042,0,0,1,4.086.712A11.773,11.773,0,0,1,44.6,20.774a12.919,12.919,0,0,1,3.279,4.343,13.619,13.619,0,0,1,.486,10.327,13.089,13.089,0,0,1-2.814,4.668L37.17,48.905l.981,1.034a3.474,3.474,0,0,0,4.912.174c.061-.056.117-.113.174-.174L64.95,27.171A16.546,16.546,0,0,0,63.83,3.473Z" transform="translate(47.59 6)" fill="#fff"/>
        </g>
        <g transform="matrix(1, 0, 0, 1, -54.37, -6)" filter="url(#Path_13258)">
          <path id="Path_13258-2" data-name="Path 13258" d="M36.74,47.767a10.733,10.733,0,0,0-14.813,1.09l-1.585,1.65L18.775,48.87c-4-4.208-10.466-4.885-14.813-1.1a11.725,11.725,0,0,0-.795,16.767L18.549,80.662a2.458,2.458,0,0,0,1.8.786,2.493,2.493,0,0,0,1.811-.786L37.535,64.534a11.725,11.725,0,0,0-.795-16.767Z" transform="translate(54.35 -19.62)" fill="#fff"/>
        </g>
      </g>
    </g>
    <g transform="matrix(1, 0, 0, 1, -9, -6)" filter="url(#Path_13269)">
      <path id="Path_13269-2" data-name="Path 13269" d="M148.806,296.987c-6.342.356-12.042-1.737-17.564-4.536-1.6-.819-3.229-1.581-4.851-2.352a2.315,2.315,0,0,0-1.1-.348,1.5,1.5,0,0,0-1.016.57,1.613,1.613,0,0,0,.02,1.073,1.061,1.061,0,0,0,.447.508c3.8,2.68,7.572,5.441,12.128,6.707a49.947,49.947,0,0,0,15.463,1.5c4.4-.18,8.358-1.721,12.291-3.462,9.255-4.1,18.544-8.166,27.717-12.455a10.115,10.115,0,0,1,8.108-.7,5.515,5.515,0,0,1,3.962,4.781,5.877,5.877,0,0,1-2.692,6.109c-7.711,4.851-15.36,9.768-23.534,13.787a114.386,114.386,0,0,1-24.739,9.255,22.58,22.58,0,0,1-11.423-.533q-13.521-3.823-27.07-7.674a12.191,12.191,0,0,0-8.067.2c-2.249.881-4.507,1.717-6.789,2.561a7.947,7.947,0,0,1-4.421.545c-2.954-.59-4.4-2.638-5.08-5.371-1.086-4.376-2.11-8.768-3.159-13.156-.549-2.286-1.131-4.568-1.639-6.867-.873-4.1,1-7.174,5.044-8.161,8.51-2.073,17.044-4.044,25.558-6.1a31.915,31.915,0,0,1,9.6-1.2,16.9,16.9,0,0,1,10.96,4.671,19.7,19.7,0,0,0,12.238,5.367c2.831.279,5.675.41,8.518.578a6.023,6.023,0,0,1,5.838,5.478c.119.971.2,1.95.234,2.929a4.074,4.074,0,0,1-2.606,4.1,22.083,22.083,0,0,1-7.572,1.9C152.01,296.827,150.408,296.889,148.806,296.987Z" transform="translate(-76.59 -213.31)" fill="#fff"/>
    </g>
  </g>
</svg>
