<svg xmlns="http://www.w3.org/2000/svg" width="17.082" height="15.184" viewBox="0 0 17.082 15.184">
  <path id="Icon_awesome-hotel" data-name="Icon awesome-hotel" d="M16.607,1.9a.474.474,0,0,0,.474-.474V.474A.474.474,0,0,0,16.607,0H.474A.474.474,0,0,0,0,.474v.949A.474.474,0,0,0,.474,1.9H.948V13.286H.474A.474.474,0,0,0,0,13.76v.949a.474.474,0,0,0,.474.474H7.592V12.811a.476.476,0,0,1,.474-.474h.949a.476.476,0,0,1,.474.474v2.372h7.117a.474.474,0,0,0,.474-.474V13.76a.474.474,0,0,0-.474-.474h-.474V1.9ZM7.592,3.227a.408.408,0,0,1,.38-.38H9.11a.408.408,0,0,1,.38.38V4.365a.408.408,0,0,1-.38.38H7.971a.408.408,0,0,1-.38-.38V3.227Zm0,2.847a.408.408,0,0,1,.38-.38H9.11a.408.408,0,0,1,.38.38V7.212a.408.408,0,0,1-.38.38H7.971a.408.408,0,0,1-.38-.38V6.073ZM3.8,3.227a.408.408,0,0,1,.38-.38H5.314a.408.408,0,0,1,.38.38V4.365a.408.408,0,0,1-.38.38H4.175a.408.408,0,0,1-.38-.38ZM5.314,7.592H4.175a.408.408,0,0,1-.38-.38V6.073a.408.408,0,0,1,.38-.38H5.314a.408.408,0,0,1,.38.38V7.212A.408.408,0,0,1,5.314,7.592Zm.38,3.8a2.847,2.847,0,0,1,5.694,0Zm7.592-4.175a.408.408,0,0,1-.38.38H11.767a.408.408,0,0,1-.38-.38V6.073a.408.408,0,0,1,.38-.38h1.139a.408.408,0,0,1,.38.38Zm0-2.847a.408.408,0,0,1-.38.38H11.767a.408.408,0,0,1-.38-.38V3.227a.408.408,0,0,1,.38-.38h1.139a.408.408,0,0,1,.38.38Z" fill="#707070"/>
</svg>
