<svg xmlns="http://www.w3.org/2000/svg" width="81" height="58" viewBox="0 0 81 58">
  <g id="Group_3917" data-name="Group 3917" transform="translate(7702 -9283)">
    <rect id="Rectangle_1083" data-name="Rectangle 1083" width="81" height="58" rx="10" transform="translate(-7702 9283)" fill="#fff"/>
    <g id="Layer_2" data-name="Layer 2" transform="translate(-7689.96 9289)">
      <g id="Layer_1" data-name="Layer 1" transform="translate(-0.04 0)">
        <path id="Path_1" data-name="Path 1" d="M102.211,95.019a21.612,21.612,0,0,1-.661,3.582,20.272,20.272,0,0,1-3.14,7,15.957,15.957,0,0,1-5.571,5.173,15.083,15.083,0,0,1-4.292.963,39.741,39.741,0,0,1-4.861.36,5.551,5.551,0,0,1-1.361-.1l-.076-.131a7.6,7.6,0,0,1,1.393-.171,15.66,15.66,0,0,0,5.446-1.57,14.416,14.416,0,0,0,2.326-1.361q2.7-1.91,3.82-2.893a22.285,22.285,0,0,0,3.158-3.536q2.4-3.253,2.4-4.594a2.567,2.567,0,0,0-.824-1.769,2.39,2.39,0,0,0-1.729-.86,9.669,9.669,0,0,0-3.2,1.021,13.8,13.8,0,0,0-2.969,1.646,1.413,1.413,0,0,0-.2.661l.076.227a8.453,8.453,0,0,1,1.99,2.628,9.215,9.215,0,0,1,.4,3.14,5.32,5.32,0,0,1-.285,1.437q-.34,1.116-.756,1.116l-.171-.151q.133-1.078.133-1.116,0-.87-1.58-2.752a5.426,5.426,0,0,1-1.578-3.148,13.265,13.265,0,0,1,.832-2.628,14.8,14.8,0,0,1,.68-1.532,10.541,10.541,0,0,1,4.405-2.835,11.877,11.877,0,0,1,3.669-1.1,2.116,2.116,0,0,1,1.21.509,3.277,3.277,0,0,1,.907.983A3.627,3.627,0,0,1,102.211,95.019Z" transform="translate(-65.876 -73.478)" fill="#2a3a73"/>
        <path id="Path_2" data-name="Path 2" d="M206.489,75.35a2.594,2.594,0,0,0-2.085-1.393q-.995,0-2.215,2.469a8.66,8.66,0,0,0-1.128,3.406,1.273,1.273,0,0,0,.511,1.043,1.811,1.811,0,0,0,1.15.4,4.151,4.151,0,0,0,2.34-1.17.7.7,0,0,1,.4.744,7.491,7.491,0,0,1-3.184,4.328l.026-.092a9.551,9.551,0,0,1-2.278,1.592,5.85,5.85,0,0,1-2.533.808,2.389,2.389,0,0,1-1.234-.233A14.924,14.924,0,0,0,197.3,85.7a11.784,11.784,0,0,0,.547-1.894c.056-.255.086-.376.086-.36a2.189,2.189,0,0,0-.064-.724.631.631,0,0,0-.3.277,8.8,8.8,0,0,1-1.9,2.262l.03-.113a4.906,4.906,0,0,1-3.448,1.644q-2.447,0-3.257-4.113a42.686,42.686,0,0,1-.446-6.051q-.149-4.877-.149-6.029a45.279,45.279,0,0,0-.107-4.974h-.127a9.986,9.986,0,0,0-.7,1.791,11.429,11.429,0,0,0-.531,1.809q0,.129.2,7.362l.171,6.429a17.846,17.846,0,0,0,.573,4.682q.9,2.684,3.3,2.682a6.049,6.049,0,0,0,3.3-1.059v.036l.575-.446a2.856,2.856,0,0,0,2.684,1.554,5.851,5.851,0,0,0,3.291-1.146l-.012.038a14.886,14.886,0,0,0,5.492-7.937,16.017,16.017,0,0,0,.852-3.582A4.6,4.6,0,0,0,206.489,75.35Z" transform="translate(-149.728 -52.563)" fill="#2a3a73"/>
        <path id="Path_3" data-name="Path 3" d="M49.951,74.067a2.761,2.761,0,0,0-2-.995,3.581,3.581,0,0,0-1.174.247q-.511.189-1.3,2.041a7.956,7.956,0,0,0-.738,2.535q0,1.968,1.683,1.966,1.532,0,2.76-2.137a2.222,2.222,0,0,1,.927,1.928q0,2.933-3.044,6.751-3.2,3.989-6.051,3.98-4.425,0-4.425-5.068A9.91,9.91,0,0,1,38.4,80.456a38.564,38.564,0,0,1,5.88-7.507q2.5-2.362,4.992-4.744c.185-.2.352-.37.525-.555h-.784l-2.541,2.314a56.967,56.967,0,0,0-7.014,7.525q-3.707,5.05-3.707,9.352,0,6.52,4.312,6.522,4.027,0,7.223-4.348a22.979,22.979,0,0,0,3.669-8.057,9.218,9.218,0,0,0,.32-2.213,12.746,12.746,0,0,0-.2-2.666A4.318,4.318,0,0,0,49.951,74.067Z" transform="translate(-28.629 -54.189)" fill="#2a3a73"/>
        <rect id="Rectangle_6" data-name="Rectangle 6" width="3.112" height="3.112" transform="translate(41.509 26.766) rotate(-45)" fill="#ba1e74"/>
        <rect id="Rectangle_7" data-name="Rectangle 7" width="3.112" height="3.112" transform="translate(52.58 18.107) rotate(-45)" fill="#ba1e74"/>
        <rect id="Rectangle_8" data-name="Rectangle 8" width="3.112" height="3.112" transform="translate(16.261 11.755) rotate(-45)" fill="#ba1e74"/>
        <rect id="Rectangle_9" data-name="Rectangle 9" width="3.112" height="3.112" transform="translate(20.359 11.756) rotate(-45)" fill="#ba1e74"/>
        <path id="Path_4" data-name="Path 4" d="M15.1,45.5a14.294,14.294,0,0,1-2.929.06,13.53,13.53,0,0,1-9.324-5.12A13.331,13.331,0,0,1,.2,29.647c1.269-7.034,5.786-11.753,7.959-14.022a13.016,13.016,0,0,0,1.128-1.263,11.44,11.44,0,0,1,.78-.995c.571-.686,1.162-1.393.6-2.234h0A10.154,10.154,0,0,1,9.376,7.75v-.09l-.04-.1a1.538,1.538,0,0,1-.105-.69A7.314,7.314,0,0,0,13.316,2.7a15,15,0,0,0,.4-1.922A4.682,4.682,0,0,1,13.857,0a9.4,9.4,0,0,1,2.619,6.952c-.3,4.692-3.972,8.568-4.4,8.988-1.3,1.325-7.879,8.214-9.421,13.684A12.792,12.792,0,0,0,5.04,40.943c1.713,1.932,5.01,4.1,11.045,3.486l.308-.034c7.088-.834,13.544-5.209,18.021-9.109C29.862,39.664,21.933,44.694,15.1,45.5Z" transform="translate(0.04 0)" fill="#ba1e74"/>
      </g>
    </g>
  </g>
</svg>
