<svg xmlns="http://www.w3.org/2000/svg" width="1532.25" height="1002.183" viewBox="0 0 1532.25 1002.183" style="&#10;    background: red;&#10;">
  <g id="Group_3916" data-name="Group 3916" transform="translate(10874.232 -9672)">
    
    <path id="Moon" d="M920.159,766.032h-.171q-9.258,15.711-19.923,30.555v.284c-.154.1-.277.2-.423.3a398.79,398.79,0,0,1-109.273,103.2H775.48v-9.638H763.424v9.638h-18c-.25-.085-.474-.177-.755-.253l-.189.253H728.594v-9.638H716.537v9.638h-7.688c.126-4.554-.072-9.205-1.689-10.979-2.37-8.671-11.3-8.066-12.057-18.771,3.181-1.855,11.968-10.222,13.4-13.409,1.251-2.789.564-6.313.238-9.521q-7.226.3-14.492.3c-4.813,0-9.6-.125-14.363-.319-2.064,2.038-3.5,3.854-8.892,4.175a23.748,23.748,0,0,0-4.435-4.955q-14.02-1.107-27.716-3.322v13.64c3.306,2.057.827,1.537,2.679,4.023l2.679,1.341,6.7,8.045h1.339v5.363c-5.654,3.269-8.546,9.409-13.4,13.408v10.979H630.8v-9.638H618.745v9.638h-18c-.25-.085-.474-.177-.755-.253l-.189.253H583.915v-9.638H571.858v9.638H564.17c.126-4.554-.072-9.205-1.689-10.979-2.37-8.671-11.3-8.066-12.057-18.771,3.094-1.728,12.037-10.343,13.4-13.409V838.436H545.066c-2.055,3.309-1.536.828-4.019,2.682l-1.34,2.681-8.038,6.7v1.341h-5.358c-1.726-3.1-10.333-12.048-13.4-13.408H494.16V857.2c3.306,2.057.827,1.537,2.679,4.023l2.68,1.341,6.7,8.045h1.339v5.363c-5.654,3.269-8.546,9.409-13.4,13.408v10.979H486.12v-9.638H474.066v9.638h-18c-.25-.085-.474-.177-.755-.253l-.189.253H439.236v-9.638H427.179v9.638h-7.687c.125-4.554-.073-9.205-1.69-10.979-2.37-8.671-11.3-8.066-12.057-18.771,3.094-1.728,12.037-10.343,13.4-13.409V838.436H400.387c-2.055,3.309-1.536.828-4.019,2.682q-.671,1.339-1.34,2.681l-8.037,6.7v1.341h-5.359c-1.726-3.1-10.333-12.048-13.4-13.408H349.481V857.2c3.306,2.057.827,1.537,2.679,4.023l2.68,1.341,6.7,8.045h1.339v5.363c-5.531,3.3-7.236,9.327-13.7,11.384q9.748,6.807,19.861,13h-7.82A398.679,398.679,0,0,1,192.986,678.4c-63.912-211.628,55.629-435.059,267-499.048A399.2,399.2,0,0,1,575.8,162.128q17.538,0,34.861,1.534A345.152,345.152,0,0,0,415,296.128c-1.364,1.889-2.719,3.784-4.046,5.7q-7.936,11.428-14.962,23.508c.007.012.016.021.023.032q-2.145,3.7-4.2,7.465l-.041.006q-.852,1.554-1.688,3.12l.063-.015q-5.182,9.723-9.771,19.8H380.3q-3.315,7.287-6.3,14.749h.1q-3.688,9.258-6.85,18.772h-.125q-1.113,3.336-2.158,6.7h.115q-1.178,3.8-2.269,7.635c-.042.006-.09.007-.132.013q-3.753,13.15-6.467,26.717l.115.16q-1.995,10-3.4,20.2l-.18.136q-1.569,11.337-2.4,22.9h.16c-.584,8.224-.9,16.522-.9,24.895,0,2.07.042,4.131.078,6.194-.054.04-.106.086-.16.128q.115,6.446.456,12.834c.06.038.109.087.169.124q.858,15.651,3.089,30.91h-.154q2.1,14.438,5.36,28.474c.066.078.131.157.2.235.782,3.355,1.624,6.685,2.5,10-.038.028-.071.062-.109.091q3.894,14.651,9.006,28.776c.033-.01.069-.027.1-.036q3.043,8.421,6.5,16.64c-.041-.007-.07-.018-.109-.026.534,1.266,1.1,2.517,1.648,3.775l.075-.033q1.9,4.353,3.9,8.642h-.079q4.338,9.234,9.18,18.173c.014-.006.023-.014.037-.02,3.24,5.975,6.671,11.83,10.246,17.585v.034c.928,1.489,1.856,2.978,2.806,4.452h0c1.646,2.563,3.338,5.092,5.051,7.606q6.312,9.246,13.189,18.057c.183.234.364.47.547.7,63.132,80.314,161.1,131.889,271.1,131.889a343.309,343.309,0,0,0,233.2-90.925c-2.316,4.29-4.735,8.525-7.206,12.729C920.2,765.76,920.182,765.9,920.159,766.032ZM491.481,880v-1.34c2.925-1.609,4.413-2.955,5.358-6.7-3.3-1.93-3.734-4.207-8.037-5.363l-4.019,5.363h-1.34C482.683,874.209,489.267,880.857,491.481,880Zm-10.717,4.023v-1.341c-2.413-1.267-2.109-1.857-5.359-2.682v1.341c-1.525,1.528-.533,0-1.339,2.682h6.7ZM475.4,866.592h2.68a5.341,5.341,0,0,1,2.679-2.682v-1.34h-6.7q.671,2.011,1.341,4.023Zm-1.339-10.726h12.056V843.8H474.066v12.068ZM463.349,894.75l2.679,1.341c1.131,1.521-.17.2,1.34,1.341v-6.7l-4.019,1.341v2.681Zm-17.415,2.682h1.339c1.266-2.415,1.855-2.111,2.68-5.363l-4.019-1.341v6.7Zm14.736-13.408c3.321-5.531,6.643-5.031,6.7-14.749a17.85,17.85,0,0,1-6.7-6.7h-8.038c-3.321,5.53-6.643,5.03-6.7,14.749,5.527,3.32,5.028,6.645,14.738,6.7Zm6.7-28.157v-6.7h-1.34c-1.131,1.521.17.2-1.34,1.34l-1.339,4.023h1.339c1.525,1.523,0,.53,2.678,1.337Zm-4.019-17.431c-3.3-1.93-3.735-4.208-8.038-5.363l-4.019,5.363h-1.339c-.761,2.252,5.823,8.9,8.037,8.045V845.14c2.924-1.609,4.408-2.955,5.357-6.7Zm-17.415,17.431h2.679q.671-2.012,1.34-4.023l-4.019-2.681v6.7Zm-13.4,28.157h6.7q-.671-2.011-1.34-4.023h-2.679l-1.34,2.682h-1.339v1.341Zm0-20.113h1.339v1.341l4.019,1.341v-1.341c1.525-1.527.534,0,1.34-2.681h-6.7v1.34Zm6.7-8.044V843.8H427.179v12.068h12.057ZM417.8,871.956h-1.34c-.76,2.253,5.824,8.9,8.038,8.045V878.66c2.925-1.609,4.413-2.955,5.358-6.7-3.3-1.93-3.734-4.207-8.037-5.363Zm1.339-64.359v-1.34c2.926-1.61,4.414-2.956,5.359-6.7-3.3-1.93-3.735-4.208-8.038-5.364l-4.019,5.364H411.1c-.757,2.248,5.827,8.9,8.041,8.043Zm-17.415,22.794h12.057V818.324H401.726v12.067Zm6.7-18.771v-1.341c-2.412-1.266-2.109-1.857-5.358-2.682v1.341c-1.525,1.528-.534,0-1.34,2.682h6.7Zm-5.358-17.431h2.679a5.338,5.338,0,0,1,2.679-2.681v-1.341h-6.7q.676,2.01,1.342,4.022Zm-1.34-10.726h12.057V771.4H401.726v12.068Zm-6.7,41.565v-6.7l-4.019,1.341v2.681l2.68,1.341c1.133,1.517-.168.191,1.341,1.337Zm-9.377,16.09v-1.341c2.925-1.609,4.413-2.955,5.358-6.7-3.3-1.93-3.734-4.208-8.037-5.363q-2.01,2.68-4.019,5.363h-1.34c-.758,2.248,5.826,8.9,8.04,8.041Zm-12.057-16.09h1.34c1.265-2.415,1.855-2.111,2.679-5.363l-4.019-1.341v6.7ZM388.33,811.62c3.321-5.531,6.643-5.03,6.7-14.749-5.525-3.324-5.025-6.649-14.736-6.7-3.321,5.53-6.643,5.03-6.7,14.749C379.12,808.24,378.62,811.565,388.33,811.62Zm6.7-28.157v-6.7h-1.339c-1.131,1.521.169.2-1.34,1.34q-.671,2.011-1.34,4.023h1.34c1.524,1.523,0,.53,2.677,1.337Zm-4.019-17.431c-3.3-1.93-3.734-4.208-8.037-5.363l-4.019,5.363h-1.34c-.76,2.252,5.824,8.9,8.038,8.045v-1.341c2.923-1.609,4.411-2.955,5.356-6.7ZM373.6,783.463h2.679q.671-2.012,1.34-4.023l-4.019-2.681v6.7ZM354.84,830.391H366.9V818.324H354.84Zm5.358-40.224v1.341h1.34v1.34l4.019,1.341v-1.341c1.525-1.527.533,0,1.339-2.681h-6.7Zm6.7-6.7V771.4H354.84v12.068H366.9ZM365.557,807.6h-2.68l-1.339,2.682H360.2v1.341h6.7Q366.227,809.609,365.557,807.6Zm-13.4,0v-1.34c2.926-1.61,4.414-2.956,5.359-6.7-3.3-1.93-3.735-4.208-8.038-5.364l-4.019,5.364H344.12c-.758,2.245,5.826,8.893,8.04,8.04ZM346.8,880v-1.34c2.925-1.609,4.413-2.955,5.358-6.7-3.3-1.93-3.734-4.207-8.037-5.363L340.1,871.96h-1.34C338,874.209,344.588,880.857,346.8,880Zm-16.076-13.408h2.68a5.341,5.341,0,0,1,2.679-2.682v-1.34h-6.7q.673,2.011,1.343,4.023Zm-1.339-10.726h12.056V843.8H329.387v12.068Zm-9.377-1.341c1.526,1.527,0,.534,2.679,1.341v-6.7h-1.34c-1.131,1.521.17.2-1.339,1.34q-.671,2.011-1.34,4.023h1.34Zm-6.7-8.045v-1.34c2.926-1.609,4.414-2.955,5.359-6.7-3.3-1.93-3.735-4.208-8.038-5.363l-4.019,5.363h-1.339c-.758,2.248,5.829,8.9,8.04,8.041Zm-10.717,2.8v-.119a2.623,2.623,0,0,0-.426-.286Zm-13.4-13.37v-.158h6.7c2.055-3.308,1.536-.827,4.019-2.681l1.34-2.682,8.038-6.7v-1.341h5.358c1.726,3.1,10.333,12.048,13.4,13.408H346.8V816.983c-3.306-2.056-.827-1.537-2.679-4.022l-2.68-1.341q-3.348-4.023-6.7-8.045H333.4v-5.363c3.093-1.728,12.037-10.342,13.4-13.408V766.032c-5.278-.16-15.856-1.3-18.755,1.341-8.663,2.372-8.058,11.307-18.754,12.067-3.267-5.659-9.4-8.554-13.4-13.408H277.142V784.8c3.3,2.056.827,1.536,2.679,4.022l2.679,1.341q3.35,4.021,6.7,8.045h1.34v5.363c-5.358,2.967-13.012,10.733-13.4,18.771h-.268q6.012,6.927,12.328,13.57Zm68.321-181.167c-3.3-1.93-3.735-4.208-8.038-5.364l-4.019,5.364h-1.339c-.761,2.252,5.823,8.9,8.037,8.045v-1.341c2.933-1.608,4.421-2.954,5.366-6.7Zm-13.4-131.4L341.443,522l-6.7-8.045H333.4V508.6c2.512-1.4,8.88-7.346,11.914-11.173q.036-10.584.692-21.037c-5.478-.23-15.2-1.15-17.965,1.371-8.663,2.372-8.058,11.308-18.754,12.068-3.267-5.66-9.4-8.554-13.4-13.408H277.142v18.771c3.3,2.056.827,1.537,2.679,4.022l2.679,1.341,6.7,8.045h1.34v5.363c-3.094,1.728-12.037,10.342-13.4,13.408v18.772H295.9c2.055-3.309,1.536-.828,4.019-2.682q.671-1.341,1.34-2.681l8.038-6.7v-1.341h5.358c1.726,3.1,10.333,12.047,13.4,13.408H346.8V530.81c-.112-1.216-.226-2.432-.325-3.652-2.787-1.806-.568-1.418-2.352-3.813Zm1.5-10.462c-.047-1.167-.1-2.333-.134-3.5a12.1,12.1,0,0,0-1.365,3.238h1.339c.06.091.119.173.17.264Zm-4.179-91.44V409.376H329.387v12.067h12.056Zm-12.056,6.7q.669,2.012,1.339,4.023h2.68a5.337,5.337,0,0,1,2.679-2.682v-1.341h-6.7Zm6.7,20.113c-2.413-1.267-2.109-1.857-5.359-2.682v1.341c-1.525,1.527-.533,0-1.339,2.681h6.7v-1.34Zm-6.7,8.044v12.068h12.056V456.3H329.387Zm-21.434-28.157c-3.321,5.531-6.643,5.03-6.7,14.749,5.526,3.324,5.026,6.649,14.736,6.7,3.321-5.53,6.643-5.03,6.7-14.749-5.516-3.314-5.016-6.641-14.726-6.694Zm14.736-6.7v-6.7h-1.34c-1.131,1.521.17.2-1.339,1.341q-.671,2.012-1.34,4.022H320c1.536,1.525.014.533,2.689,1.339Zm-9.378-9.385v-1.341c2.926-1.61,4.414-2.956,5.359-6.7-3.3-1.93-3.735-4.208-8.038-5.364l-4.019,5.364h-1.339c-.751,2.25,5.836,8.9,8.047,8.043Zm-12.056,2.681v6.7h2.679l1.34-4.022Zm17.415,56.314c-3.3-1.93-3.735-4.207-8.038-5.363q-2.008,2.682-4.019,5.363h-1.339c-.761,2.253,5.823,8.9,8.037,8.045v-1.341c2.936-1.607,4.424-2.955,5.369-6.7Zm-13.4-13.408-4.019-1.341V463h1.339c1.28-2.409,1.869-2.1,2.694-5.357Zm13.4,0v2.682l2.679,1.341c1.131,1.521-.17.2,1.34,1.34v-6.7ZM235.6,500.549c-3.321,5.531-6.643,5.03-6.7,14.749,5.526,3.324,5.026,6.649,14.736,6.7,3.321-5.53,6.644-5.03,6.7-14.749-5.515-3.318-5.015-6.643-14.726-6.7Zm14.736-6.7v-6.7H249.01c-1.131,1.521.17.2-1.34,1.341q-.669,2.012-1.339,4.022h1.339c1.53,1.521.005.528,2.679,1.335Zm-9.377-9.386v-1.34c2.925-1.61,4.413-2.956,5.359-6.7-3.3-1.93-3.735-4.208-8.038-5.364l-4.019,5.364h-1.34c-.75,2.246,5.834,8.894,8.048,8.038ZM228.9,487.145v6.7h2.68q.669-2.012,1.339-4.022Zm17.416,56.314c-3.3-1.93-3.735-4.208-8.038-5.363l-4.019,5.363h-1.34c-.76,2.253,5.824,8.9,8.038,8.045v-1.341c2.938-1.611,4.423-2.957,5.369-6.706Zm-13.4-13.408L228.9,528.71v6.7h1.34c1.278-2.41,1.868-2.11,2.692-5.361Zm13.4,0v2.682L249,534.074c1.131,1.521-.17.194,1.339,1.34v-6.7ZM242.3,560.89v1.341h-5.358c-1.726-3.1-10.333-12.048-13.4-13.409H204.8v18.772c3.306,2.056.827,1.537,2.679,4.022l2.68,1.341q3.348,4.023,6.7,8.045H218.2v5.363c-5.654,3.27-8.546,9.41-13.4,13.408v18.772h18.755c2.054-3.309,1.535-.828,4.019-2.682l1.339-2.682,8.038-6.7v-1.34h5.358c1.727,3.1,10.333,12.047,13.4,13.408h18.754c.16-5.283,1.3-15.871-1.339-18.772-2.37-8.67-11.3-8.065-12.057-18.771,3.094-1.728,12.037-10.342,13.4-13.408V548.82H255.708c-2.055,3.309-1.536.828-4.019,2.682l-1.34,2.682Zm-50.9,33.52v-1.341c-2.413-1.266-2.109-1.856-5.358-2.681v1.34c-1.526,1.528-.534,0-1.34,2.682h6.7Zm-6.7,6.7v12.067h12.057V601.112h-12.05Zm1.34-24.134h2.679a5.337,5.337,0,0,1,2.679-2.682v-1.341h-6.7q.678,2.014,1.349,4.025Zm10.717-10.727V554.184h-12.05v12.067h12.057Zm-1.34,16.09h-1.34c-.76,2.252,5.824,8.9,8.038,8.045v-1.341c2.925-1.609,4.413-2.955,5.358-6.7-3.3-1.93-3.734-4.208-8.037-5.363q-2,2.679-4.012,5.361Zm12.056-64.359v-1.341c2.926-1.609,4.414-2.955,5.359-6.7-3.3-1.93-3.735-4.208-8.038-5.363l-4.019,5.363h-1.339c-.754,2.25,5.83,8.9,8.044,8.043Zm2.68-24.135H222.21V481.78H210.161v12.067Zm5.358,6.7v1.341c1.52,1.132.2-.17,1.34,1.341l4.019,1.341v-1.341c1.525-1.528.533,0,1.339-2.682h-6.7Zm5.359,17.431H218.2l-1.339,2.681c-1.52,1.132-.2-.17-1.34,1.341h6.7ZM210.154,528.7V540.77H222.21V528.708H210.161Zm2.679,126.037c-3.3-1.93-3.735-4.208-8.038-5.364l-4.019,5.364h-1.339c-.761,2.252,5.823,8.9,8.037,8.045v-1.341c2.933-1.6,4.426-2.95,5.366-6.7Zm2.679-9.386V646.7h1.34v1.341l4.019,1.34v-1.34c1.525-1.528.533-.005,1.339-2.682h-6.7Zm6.7-6.7V626.588H210.161v12.067h12.056Zm-1.339,24.135H218.2l-1.339,2.681h-1.34v1.341h6.7q-.673-2.01-1.343-4.02Zm-10.717,10.726v12.067h12.056V673.516H210.161Zm36.17,14.749c-3.3-1.93-3.735-4.208-8.038-5.363q-2.01,2.68-4.019,5.363h-1.34c-.76,2.252,5.824,8.9,8.038,8.045v-1.341c2.933-1.607,4.418-2.953,5.364-6.7ZM249,678.877c1.131,1.522-.17.2,1.339,1.341v-6.7l-4.018,1.341v2.681Zm-16.076-4.022-4.019-1.341v6.7h1.34c1.27-2.409,1.86-2.105,2.684-5.357Zm10.717-8.045c3.321-5.531,6.644-5.03,6.7-14.749-5.525-3.324-5.025-6.649-14.736-6.7-3.321,5.531-6.643,5.03-6.7,14.749,5.531,3.322,5.031,6.647,14.741,6.7Zm6.7-28.157v-6.7H249.01c-1.131,1.521.17.2-1.34,1.341l-1.339,4.022h1.339c1.53,1.525.005.532,2.679,1.339Zm-4.018-17.431c-3.3-1.93-3.735-4.207-8.038-5.363l-4.019,5.363h-1.34c-.76,2.253,5.824,8.9,8.038,8.045v-1.341c2.931-1.607,4.416-2.953,5.362-6.7ZM231.6,638.655q.669-2.012,1.339-4.023l-4.019-2.681v6.7h2.68Zm48.226,16.09c-3.3-1.93-3.735-4.208-8.038-5.364l-4.019,5.364H266.43c-.761,2.252,5.823,8.9,8.037,8.045v-1.341c2.921-1.61,4.409-2.956,5.354-6.7Zm5.358-72.4c-3.3-1.93-3.734-4.208-8.037-5.363l-4.019,5.363h-1.34c-.76,2.252,5.824,8.9,8.038,8.045v-1.341c2.92-1.613,4.408-2.959,5.353-6.708Zm2.68-9.386V574.3H289.2v1.341l4.019,1.341v-1.341c1.525-1.528.534,0,1.34-2.682h-6.7Zm6.7-6.7V554.184H282.5v12.067h12.057Zm-1.34,24.135h-2.679q-.671,1.34-1.34,2.681h-1.339v1.341h6.7q-.679-2.016-1.349-4.03ZM282.5,601.112v12.067h12.057V601.112Zm-13.4,72.4H257.047v12.067H269.1V673.516Zm-5.359-6.7v-1.341c-2.412-1.266-2.109-1.856-5.358-2.681v1.34c-1.525,1.528-.534,0-1.34,2.682h6.7Zm-5.358-17.431h2.679a5.339,5.339,0,0,1,2.679-2.681v-1.341h-6.7q.677,2.012,1.346,4.022ZM269.1,638.655V626.588H257.047v12.067ZM258.387,517.982v1.341c-1.525,1.527-.534,0-1.34,2.681h6.7v-1.341C261.333,519.4,261.636,518.807,258.387,517.982Zm5.358-16.09v-1.341h-6.7q.671,2.012,1.34,4.023h2.679a5.341,5.341,0,0,1,2.681-2.682Zm-6.7,26.816v12.068H269.1V528.708H257.047Zm0-34.861H269.1V481.78H257.047v12.067Zm10.717,16.09h-1.339c-.761,2.252,5.823,8.9,8.037,8.045v-1.341c2.926-1.609,4.414-2.955,5.359-6.7-3.3-1.93-3.735-4.208-8.038-5.363Zm12.057-64.359v-1.341c2.925-1.609,4.413-2.955,5.358-6.7-3.3-1.93-3.734-4.208-8.037-5.363q-2.01,2.68-4.019,5.363h-1.34c-.758,2.248,5.826,8.9,8.04,8.041Zm2.679-24.135h12.057V409.376H282.5v12.067Zm5.359,6.7v1.341c1.52,1.132.2-.17,1.339,1.341l4.019,1.341v-1.341c1.525-1.528.534,0,1.34-2.682h-6.7Zm5.358,17.431h-2.679l-1.34,2.682c-1.52,1.131-.2-.171-1.339,1.34h6.7q-.67-2.006-1.34-4.018ZM282.5,456.3v12.068h12.057V456.3Zm36.17,159.557c-3.3-1.93-3.735-4.208-8.038-5.363l-4.019,5.363h-1.339c-.761,2.252,5.823,8.9,8.037,8.045v-1.341c2.926-1.6,4.414-2.951,5.359-6.7Zm2.679-9.386c1.131,1.522-.17.2,1.34,1.341v-6.7l-4.019,1.341v2.682Zm-16.075-4.022-4.019-1.341v6.7h1.339c1.266-2.408,1.855-2.1,2.68-5.355Zm10.717-8.045c3.321-5.531,6.643-5.03,6.7-14.749a17.85,17.85,0,0,1-6.7-6.7h-8.038c-3.321,5.531-6.643,5.03-6.7,14.749,5.528,3.324,5.028,6.649,14.738,6.7Zm6.7-28.157v-6.7h-1.34c-1.131,1.521.17.2-1.339,1.341q-.671,2.01-1.34,4.022h1.34c1.524,1.527,0,.534,2.677,1.341ZM318.67,548.82c-3.3-1.929-3.735-4.207-8.038-5.363q-2.008,2.682-4.019,5.363h-1.339c-.761,2.253,5.823,8.9,8.037,8.045v-1.34C316.237,553.915,317.725,552.569,318.67,548.82Zm-14.736,17.431,1.34-4.022-4.019-2.682v6.7h2.679Zm32.151,28.157v-1.341c-2.413-1.266-2.109-1.856-5.359-2.681v1.34c-1.525,1.528-.533,0-1.339,2.682h6.7Zm-6.7,6.7v12.067h12.056V601.112H329.387Zm1.339-24.134h2.68a5.337,5.337,0,0,1,2.679-2.682v-1.341h-6.7q.673,2.016,1.343,4.027Zm10.717-10.727V554.184H329.387v12.067h12.056Zm2.68,10.727-4.019,5.363h-1.34c-.76,2.252,5.824,8.9,8.038,8.045v-1.341c2.925-1.609,4.413-2.955,5.358-6.7-3.3-1.93-3.732-4.208-8.035-5.363ZM346.8,621.22c-5.278-.16-15.856-1.3-18.755,1.341-8.663,2.372-8.058,11.307-18.754,12.067-3.267-5.659-9.4-8.554-13.4-13.408H277.142V640c3.3,2.056.827,1.536,2.679,4.022l2.679,1.341q3.35,4.021,6.7,8.045h1.34v5.363c-3.094,1.728-12.037,10.342-13.4,13.408v18.772H295.9c2.055-3.309,1.536-.828,4.019-2.682l1.34-2.682,8.038-6.7v-1.341h5.358c1.726,3.1,10.333,12.048,13.4,13.409H346.8v-18.78c-3.306-2.056-.827-1.536-2.679-4.022l-2.68-1.341-6.7-8.045H333.4V653.4c3.093-1.728,12.037-10.342,13.4-13.408V621.224ZM285.179,727.149c-3.3-1.93-3.734-4.208-8.037-5.364l-4.019,5.364h-1.34c-.76,2.252,5.824,8.9,8.038,8.044v-1.34C282.746,732.243,284.234,730.9,285.179,727.149Zm2.68-9.386V719.1H289.2v1.341l4.019,1.34v-1.34c1.525-1.528.534,0,1.34-2.682h-6.7Zm6.7-6.7V698.992H282.5v12.067h12.057Zm-1.34,24.134H290.54l-1.34,2.682h-1.339v1.341h6.7l-1.344-4.027ZM282.5,745.92v12.067h12.057V745.92Zm36.17,14.749c-3.3-1.93-3.735-4.208-8.038-5.363l-4.019,5.363h-1.339c-.761,2.252,5.823,8.9,8.037,8.045v-1.341c2.926-1.609,4.414-2.955,5.359-6.7Zm2.679-9.386c1.131,1.521-.17.2,1.34,1.341v-6.7l-4.019,1.341v2.681Zm-16.075-4.022-4.019-1.341v6.7h1.339c1.266-2.411,1.855-2.107,2.68-5.359Zm10.717-8.045c3.321-5.531,6.643-5.03,6.7-14.749-5.526-3.324-5.026-6.649-14.736-6.7-3.321,5.531-6.643,5.03-6.7,14.749,5.526,3.32,5.026,6.645,14.736,6.7Zm6.7-28.157v-6.7h-1.34c-1.131,1.521.17.2-1.339,1.341q-.671,2.01-1.34,4.022h1.34c1.524,1.523,0,.53,2.677,1.337Zm-4.019-17.431c-3.3-1.93-3.735-4.207-8.038-5.363q-2.008,2.682-4.019,5.363h-1.339c-.761,2.253,5.823,8.9,8.037,8.045v-1.341c2.924-1.609,4.412-2.955,5.357-6.7Zm-14.736,17.431,1.34-4.023-4.019-2.681v6.7h2.679Zm32.151,28.157v-1.341c-2.413-1.266-2.109-1.857-5.359-2.682v1.341c-1.525,1.528-.533,0-1.339,2.682h6.7Zm-6.7,6.7v12.067h12.056V745.92H329.387Zm1.339-24.135h2.68a5.335,5.335,0,0,1,2.679-2.681v-1.341h-6.7Zm10.717-10.726V698.992H329.387v12.067h12.056Zm2.68,10.726-4.019,5.364h-1.34c-.76,2.252,5.824,8.9,8.038,8.044v-1.34c2.925-1.61,4.413-2.956,5.358-6.7-3.3-1.93-3.734-4.208-8.037-5.364ZM274.462,807.6v-1.34c2.926-1.61,4.414-2.956,5.359-6.7-3.3-1.93-3.735-4.208-8.038-5.364l-4.019,5.364h-1.339C265.664,801.8,272.248,808.453,274.462,807.6Zm-16.075-13.408h2.679a5.339,5.339,0,0,1,2.679-2.681V790.17h-6.7q.673,2.007,1.342,4.019Zm-1.34-10.726H269.1V771.4H257.047v12.068Zm-9.332.836c-.014-.27-.027-.537-.045-.836h2.679v-6.7H249.01c-1.28,2.26-1.868,3.111-3.935,3.6.868,1.314,1.756,2.622,2.64,3.934Zm-6.068-9.276c.093-4.342,2.8-2.348,4.684-8.991-3.3-1.93-3.735-4.208-8.038-5.363-1.3,1.988-1.888,2.413-3.829,2.561q3.489,5.954,7.183,11.79Zm-26.493-49.215H218.2v4.022h-1.22q6.294,13.573,13.6,26.609c4.377-2.787,4.324-6.054,11.735-6.5,1.727,3.1,10.333,12.048,13.4,13.409h18.754c.16-5.284,1.3-15.871-1.339-18.772-2.37-8.67-11.3-8.065-12.057-18.771,3.094-1.728,12.037-10.342,13.4-13.408V693.628H255.708c-2.055,3.309-1.536.828-4.019,2.682l-1.34,2.682-8.038,6.7v1.34h-5.358c-1.726-3.1-10.333-12.047-13.4-13.408H204.8v2.682h-1.531q5.369,15.025,11.885,29.5Zm-18.2-48.612c1.324,4.384,2.737,8.731,4.2,13.054.411-5.585.943-11.507.966-18.075-3.311-2.05-.829-1.538-2.679-4.022l-2.679-1.341-4.151-5.193c1.352,5.2,2.779,10.4,4.342,15.578Zm-6.724-25.273,9.215-7.9v-2.681L202.123,640V621.224H184.331q2.331,15.413,5.9,30.7Zm-8.09-131.343c-.825,7.721-1.394,15.441-1.764,23.157a7.094,7.094,0,0,1,2.993,1.061v1.341h18.755V527.367c-3.3-2.056-.827-1.536-2.679-4.022L196.765,522l-6.7-8.045h-1.339V508.6c3.093-1.728,12.037-10.342,13.4-13.408V476.417H189.407a397.121,397.121,0,0,0-7.268,44.163ZM196.765,456.3h-2.332c-1.116,4-2.154,8.029-3.142,12.068h5.474Zm5.17-23.894c-1.424,4.085-2.8,8.186-4.083,12.313l4.271.855v-1.341c2.925-1.609,4.413-2.955,5.358-6.7-2.553-1.372-4.434-2.745-5.546-5.123ZM221.4,386.183q-2.516,5.056-4.874,10.168a36.592,36.592,0,0,1,5.688-.383Q221.811,391.075,221.4,386.183Zm24.928,12.466c-3.3-1.929-3.735-4.207-8.038-5.363l-4.019,5.363h-1.34c-.76,2.253,5.824,8.9,8.038,8.045v-1.341c2.931-1.609,4.416-2.953,5.362-6.7Zm-13.4-13.408-4.019-1.341v6.7h1.34c1.271-2.416,1.861-2.112,2.685-5.364Zm17.415-42.906H249.01v1.341a10.024,10.024,0,0,0-4.019,2.682h1.34c1.509,2.3.847,1.817,4.018,2.681v-6.7ZM238.178,355.8q-4.619,7.578-8.919,15.393c2.809,1.027,3.616,2.752,6.354,4.659v1.34h8.038c3.321-5.53,6.644-5.03,6.7-14.748C245.467,359.512,245.63,356.3,238.178,355.8Zm12.171,28.1-4.018,1.341v2.682l2.679,1.341c1.131,1.521-.17.2,1.339,1.341Zm1.34,22.794-1.34,2.682-8.038,6.7v1.341h-5.358c-1.709-3.084-10.35-12.058-13.4-13.408H213.076q-4.071,9.3-7.645,18.771h.711v1.341l10.717,12.067H218.2v5.363c-5.654,3.27-8.546,9.41-13.4,13.409v18.771h18.755c2.054-3.309,1.535-.828,4.019-2.682l1.339-2.681,8.038-6.7v-1.341h5.358c1.727,3.1,10.333,12.047,13.4,13.408h18.754c.16-5.283,1.3-15.871-1.339-18.771-2.37-8.671-11.3-8.066-12.057-18.772,3.094-1.728,12.037-10.342,13.4-13.408V404.013H255.708C253.653,407.321,254.172,404.841,251.689,406.694ZM269.1,349.039V336.972H257.047v12.067H269.1Zm-12.057,6.7q.671,2.012,1.34,4.023h2.679a5.341,5.341,0,0,1,2.679-2.682v-1.341h-6.7Zm6.7,20.113c-2.412-1.267-2.109-1.857-5.358-2.682v1.341c-1.525,1.527-.534,0-1.34,2.681h6.7v-1.34Zm-6.7,8.044v12.068H269.1V383.9H257.047Zm17.415-73.744h-1.339l-.483-2.416q-8.626,10.3-16.55,21.187h18.372V310.156Zm-2.679,49.61-4.019,5.363h-1.339c-.761,2.252,5.823,8.9,8.037,8.045v-1.341c2.926-1.609,4.414-2.955,5.359-6.7-3.3-1.929-3.731-4.208-8.034-5.363Zm13.4-66.286q-3.327,3.6-6.562,7.29h1.2l4.019-5.363h1.339V293.48Zm9.378-9.852c-1.3,1.318-2.578,2.663-3.862,4a4.313,4.313,0,0,0,2.522-.264v-1.341h1.34v-2.393Zm-1.34,17.142h-2.679l-1.34,2.682c-1.52,1.132-.2-.17-1.339,1.341h6.7q-.672-2.007-1.342-4.019Zm1.34,10.727H282.5V323.56h12.057V311.5Zm10.717-38.261c-1.208,1.131-2.425,2.254-3.617,3.4h2.277V275.3h1.34v-2.059Zm8.037-7.327v.024c-.5.443-1.009.872-1.5,1.317h1.5v-1.317l.2-.173,5.16-3.874a6.925,6.925,0,0,0,.479-1.056c-1.9,1.622-3.771,3.275-5.639,4.93Zm9.378,4.022h-1.34c-1.131,1.522.17.2-1.339,1.341q-.671,2.012-1.34,4.023h1.34c1.526,1.526,0,.534,2.679,1.34v-6.7Zm-6.7,13.409h-8.038c-3.321,5.53-6.643,5.03-6.7,14.748,5.526,3.325,5.026,6.65,14.736,6.7,3.321-5.531,6.643-5.031,6.7-14.749a17.85,17.85,0,0,1-6.7-6.7Zm2.679,42.906c-3.3-1.93-3.735-4.208-8.038-5.364l-4.019,5.364h-1.339c-.761,2.252,5.823,8.9,8.037,8.044v-1.34c2.928-1.606,4.416-2.952,5.361-6.7Zm-13.4-13.409-4.019-1.34v6.7h1.339c1.272-2.407,1.861-2.1,2.686-5.356Zm17.415-1.34-4.019,1.34v2.682l2.679,1.341c1.131,1.521-.17.2,1.34,1.341v-6.7Zm-13.4,33.52c-3.267-5.66-9.4-8.554-13.4-13.408H277.142V350.38c3.3,2.056.827,1.537,2.679,4.023l2.679,1.34,6.7,8.045h1.34v5.364c-3.094,1.727-12.037,10.342-13.4,13.408v18.771H295.9c2.055-3.308,1.536-.828,4.019-2.682q.671-1.34,1.34-2.681l8.038-6.7v-1.341h5.358c1.726,3.1,10.333,12.048,13.4,13.408H346.8V382.56c-3.306-2.057-.827-1.537-2.679-4.023l-2.68-1.341-6.7-8.044H333.4v-5.364c3.093-1.728,12.037-10.342,13.4-13.408V331.609c-5.278-.16-15.856-1.3-18.755,1.341-8.663,2.371-8.058,11.307-18.754,12.067Zm48.226,20.112c-3.3-1.93-3.735-4.208-8.038-5.363l-4.019,5.363h-1.339c-.761,2.252,5.823,8.9,8.037,8.045v-1.341c2.936-1.605,4.424-2.951,5.369-6.7Zm9.377-9.386h-6.7v1.341c1.52,1.132.2-.17,1.34,1.341l4.019,1.341v-1.341c1.537-1.521.545,0,1.355-2.678Zm0-6.7V336.972H354.84v12.067H366.9Zm-25.453-72.4V264.568H329.387v12.067h12.056Zm-12.056,6.7,1.339,4.022h2.68a5.341,5.341,0,0,1,2.679-2.682v-1.34h-6.7Zm6.7,20.112c-2.413-1.267-2.109-1.857-5.359-2.682v1.341c-1.525,1.527-.533,0-1.339,2.682h6.7v-1.341Zm-6.7,8.045v12.067h12.056V311.5H329.387ZM346.8,239.249q-10.14,7.2-19.845,15.093.546,1.09,1.09,2.181H346.8Zm-2.679,48.113-4.019,5.363h-1.34c-.76,2.253,5.824,8.9,8.038,8.045v-1.341c2.925-1.609,4.413-2.955,5.358-6.7-3.3-1.929-3.732-4.212-8.035-5.367ZM366.9,229.707l-2.679-1.341v-.785q-2.019,1.276-4.019,2.585v2.223h6.7v-2.682Zm0,9.386H354.84V251.16H366.9ZM390.22,212.5q-8.427,4.464-16.622,9.336v3.845c5.526,3.324,5.026,6.649,14.736,6.7,3.321-5.531,6.643-5.031,6.7-14.749-2.579-1.4-4.034-2.5-4.818-5.136Zm.793,41.338c-3.3-1.93-3.734-4.208-8.037-5.364l-4.019,5.364h-1.34c-.76,2.252,5.824,8.9,8.038,8.044v-1.34c2.921-1.61,4.409-2.956,5.354-6.7Zm-13.4-13.409-4.019-1.34v6.7h1.34C376.2,243.382,376.789,243.686,377.613,240.433Zm17.415-1.34-4.019,1.34v2.682l2.68,1.341c1.131,1.521-.17.2,1.339,1.341v-6.7Zm13.4-6.7v-1.341c-2.412-1.267-2.109-1.857-5.358-2.682v1.341c-1.525,1.528-.534,0-1.34,2.682h6.7Zm-6.7,6.7V251.16h12.057V239.093H401.726Zm1.34-24.135h2.679a5.345,5.345,0,0,1,2.679-2.682v-1.34h-6.7q.674,2.01,1.34,4.022ZM413.783,201q-3.539,1.581-7.038,3.232h7.038Zm2.679,13.958-4.019,5.363H411.1c-.761,2.253,5.823,8.9,8.037,8.045v-1.341c2.926-1.609,4.414-2.955,5.359-6.7-3.3-1.934-3.731-4.211-8.034-5.367Zm46.887-32.27c-.72.213-1.442.415-2.161.632q-4.46,1.352-8.87,2.8c.935.97,1.934,2.294,5.672,3.358v-1.341l5.359-4.023Zm22.773-6.03q-3.345.782-6.681,1.62l6.681.478v-2.1Zm85.736-5.3q5.97-2.226,12.057-4.24v-.43H571.858Zm-45.679,20.914q4.634-2.541,9.354-4.953c.052-.169.1-.333.155-.519-3.3-1.93-3.734-4.208-8.037-5.363v1.341c-2.926,1.609-4.414,2.955-5.359,6.7a15.4,15.4,0,0,1,3.887,2.795Zm-26.66,11.959H506q2.767-1.772,5.571-3.492v-8.576H499.519v12.068Zm-5.359-20.113h18.755c2.054-3.308,1.535-.828,4.019-2.681l1.339-2.682,8.038-6.7v-1.341h5.358a28.739,28.739,0,0,0,13.376,11.953q9.23-4.351,18.775-8.184v-8a394.29,394.29,0,0,0-69.66,8.39v9.253ZM427.179,273.46q3.792-4.511,7.735-8.892h-7.735Zm-5.358-16.937h18.754c2.055-3.308,1.536-.828,4.019-2.681l1.34-2.682q4.018-3.351,8.038-6.7v-1.341h1.982q10.943-10.23,22.782-19.523a15.428,15.428,0,0,1-.651-4.612c3.093-1.727,12.037-10.342,13.4-13.408V186.8c-5.279-.16-15.857-1.3-18.755,1.341-8.663,2.372-8.058,11.307-18.754,12.067-2.747-4.624-7.618-6.369-9.774-11.313q-11.352,3.99-22.377,8.628v8.048c3.3,2.057.827,1.537,2.679,4.023l2.679,1.341,6.7,8.044h1.34v5.364c-3.094,1.728-12.037,10.342-13.4,13.408v18.771Zm-38.159,82.471q2.429-4.743,5.008-9.4a11.206,11.206,0,0,0-5.7-3.352v1.34c-2.926,1.61-4.414,2.956-5.359,6.7h1.34C380.234,336.623,381.368,338.035,383.662,338.994Zm-10.068,10.045h2.679q.671-2.01,1.34-4.022l-4.019-2.682v6.7Zm-5.358-20.112c2.054-3.308,1.535-.828,4.019-2.681l1.339-2.682,8.038-6.7v-1.341h5.359c1.608,2.708,3.942,4.431,6.038,6.383q7.068-12.091,15.066-23.57c-1.207-1.409-2.118-2.966-2.35-6.948,3.094-1.728,12.037-10.342,13.4-13.408V259.2H400.387c-2.055,3.308-1.536.828-4.019,2.681l-1.34,2.682-8.037,6.7v1.341h-5.359c-1.726-3.1-10.333-12.048-13.4-13.408H349.481v18.771c3.306,2.056.827,1.537,2.679,4.023l2.68,1.341,6.7,8.044h1.339v5.364c-5.654,3.269-8.546,9.409-13.4,13.408v18.771h18.755ZM366.9,377.2l-1.339-4.022h-2.68l-1.339,2.682c-1.52,1.132-.2-.17-1.34,1.34h6.7Zm-2.37,6.7h-9.69v12.068h5.75q1.859-6.081,3.936-12.068Zm-11.654,42.076q2.348-11.136,5.391-22.023c-2.885.116-5.932.088-8.782.06v18.771a16.207,16.207,0,0,1,3.387,3.192Zm-3.012,16.085q.445-2.739.937-5.466c-2.157-1.686-3.052-3.453-6.674-4.425q-2.01,2.68-4.019,5.363h-1.34c-.76,2.252,5.824,8.9,8.038,8.045v-1.341a12.749,12.749,0,0,0,3.054-2.176Zm-.379,110.581v14.95c3.306,2.056.827,1.537,2.679,4.022l.932.466q-2.071-9.627-3.615-19.438Zm8.171,38.142c-2.746,3-5.063,6.425-8.171,8.987v18.772h17q-4.985-13.622-8.833-27.759Zm9.244,35.8H354.84v12.067H366.9V626.588Zm-6.7,18.771V646.7h1.34v1.341l4.019,1.34v-1.34c1.525-1.528.533-.005,1.339-2.682h-6.7Zm5.359,17.431h-2.68l-1.339,2.681H360.2v1.341h6.7q-.673-2.008-1.343-4.018Zm1.339,10.726H354.84v12.067H366.9V673.516Zm6.7-37.151v2.29c.334-.08.627-.16.9-.239-.306-.68-.609-1.361-.9-2.047Zm5.093,11.275c-2.709,3.348-5.047,4.331-5.093,12.468,5.526,3.324,5.026,6.649,14.736,6.7.029-.052.052-.086.081-.136q-5.149-9.34-9.728-19.028ZM373.6,673.512v6.7h1.34c1.265-2.415,1.855-2.111,2.679-5.363Zm9.378,9.386q-2.01,2.68-4.019,5.363h-1.34c-.76,2.252,5.824,8.9,8.038,8.045v-1.341c2.925-1.609,4.413-2.955,5.358-6.7-3.306-1.93-3.738-4.208-8.041-5.365Zm12.056-4.721q-1.166-1.939-2.3-3.9l-1.716.573v2.681l2.68,1.341c1.131,1.522-.17.2,1.339,1.341v-2.039Zm9.825,15.447h-4.466c-2.055,3.309-1.536.828-4.019,2.682l-1.34,2.682-8.037,6.7v1.34h-5.359c-1.726-3.1-10.333-12.047-13.4-13.408H349.481V712.4c3.306,2.056.827,1.536,2.679,4.022l2.68,1.341,6.7,8.045h1.339v5.363c-5.654,3.27-8.546,9.409-13.4,13.408v18.772h18.755c2.054-3.309,1.535-.828,4.019-2.682l1.339-2.682,8.038-6.7v-1.341h5.359c1.726,3.1,10.332,12.048,13.4,13.409h18.754c.16-5.284,1.3-15.871-1.339-18.772-2.37-8.67-11.3-8.065-12.057-18.771a28.534,28.534,0,0,0,12.2-14.068q-6.818-8.844-13.094-18.116Zm16.968,28.157-4.019,5.364h-1.34c-.76,2.252,5.824,8.9,8.038,8.044v-1.34c2.925-1.61,4.413-2.956,5.358-6.7-3.306-1.93-3.738-4.208-8.041-5.364ZM438,735.481c-.09-.1-.181-.193-.27-.291h-2.506l-1.34,2.682h-1.339v1.341h6.7q-.628-1.863-1.249-3.729Zm1.243,10.436H427.179v12.067h12.057V745.92Zm9.841,1.049-3.143-1.049v6.7h1.339c1.2-2.29,1.794-2.171,2.555-4.921-.253-.239-.506-.481-.755-.727Zm6.234,8.337-4.019,5.363h-1.339c-.761,2.252,5.823,8.9,8.037,8.045V767.37c2.926-1.609,4.414-2.955,5.359-6.7-3.307-1.931-3.739-4.209-8.042-5.364Zm36.17,27.482q-10.07-7.223-19.6-15.128c-7.765,2.712-7.585,11.047-17.91,11.78-3.267-5.659-9.4-8.554-13.4-13.408H421.821V784.8c3.3,2.056.827,1.536,2.679,4.022l2.679,1.341q3.35,4.021,6.7,8.045h1.34v5.363c-3.094,1.728-12.037,10.342-13.4,13.408V835.75h18.754c2.055-3.308,1.536-.827,4.019-2.681l1.34-2.682,8.038-6.7v-1.341h5.358c1.726,3.1,10.333,12.048,13.4,13.408h18.755V816.983c-3.306-2.056-.827-1.537-2.679-4.022l-2.68-1.341q-3.348-4.023-6.7-8.045h-1.339v-5.363c3.074-1.7,12.052-10.367,13.4-13.408v-2.016Zm2.679,11.4-4.019,5.364H488.8c-.761,2.252,5.823,8.9,8.037,8.044v-1.34c2.926-1.61,4.413-2.956,5.359-6.7-3.3-1.93-3.733-4.208-8.036-5.364Zm12.057-1.375v.034l.108.037Zm4.019,14.783h-2.68l-1.339,2.682h-1.34v1.341h6.7q-.675-2.007-1.345-4.016Zm1.339,10.727h-12.06v12.067h12.056V818.324Zm18.755,22.794v-1.341c2.925-1.609,4.413-2.955,5.358-6.7-3.3-1.93-3.734-4.208-8.037-5.363q-2.01,2.68-4.019,5.363H522.3c-.764,2.252,5.82,8.9,8.034,8.045Zm-12.057-16.09h1.34c1.265-2.415,1.855-2.111,2.679-5.363l-4.019-1.341v6.7Zm.445-24.564q-.222,2.226-.445,4.452c5.526,3.324,5.026,6.649,14.736,6.7a19.984,19.984,0,0,1,1.527-2.432q-8.04-4.152-15.822-8.716Zm20.989,17.86-4.019,1.341v2.681l2.68,1.341v1.341h1.339v-6.7Zm18.755,2.127c-1.626-.691-3.235-1.413-4.848-2.127h-7.209v12.067h12.057Zm66.981,63.573v-1.341c-2.413-1.267-2.109-1.857-5.359-2.682v1.341c-1.525,1.528-.533,0-1.339,2.682h6.7Zm-5.359-17.431h2.68a5.341,5.341,0,0,1,2.679-2.682v-1.34h-6.7q.667,2.014,1.337,4.026Zm-29.471,30.839h1.339c1.266-2.415,1.855-2.111,2.68-5.363l-4.019-1.341v6.7Zm-13.4-13.408h6.7L582.577,880H579.9l-1.34,2.682h-1.339v1.341Zm0-20.113h1.339v1.341l4.019,1.341v-1.341c1.525-1.527.534,0,1.34-2.681h-6.7v1.34Zm6.7-8.044V843.8H571.858v12.068h12.057Zm-21.434,16.089h-1.34c-.76,2.253,5.824,8.9,8.038,8.045V878.66c2.925-1.609,4.413-2.955,5.358-6.7-3.3-1.93-3.734-4.207-8.037-5.363Zm4.435-48.052c.067,4.188-.344,8.884-.416,11.85h18.754a18.418,18.418,0,0,1,3.886-3.973q-11.282-3.57-22.226-7.877Zm23.7,31.963H593.3q.669-2.012,1.34-4.023l-4.019-2.681v6.7Zm14.923-19.333c-2.261-.6-4.52-1.2-6.762-1.838l-2.8,3.74H594.64c-.761,2.252,5.823,8.9,8.037,8.045V845.14c2.926-1.609,4.414-2.955,5.359-6.7a13.613,13.613,0,0,1-2.5-1.906Zm6.511,12.629h-1.34v1.34h-1.34l-1.339,4.023h1.339c1.527,1.527,0,.534,2.68,1.341v-6.7Zm-6.7,13.408h-8.038c-3.321,5.53-6.643,5.03-6.7,14.749,5.525,3.324,5.026,6.649,14.736,6.7,3.321-5.531,6.643-5.031,6.7-14.749a17.85,17.85,0,0,1-6.7-6.7Zm6.7,28.157-4.019,1.341v2.681l2.679,1.341v1.341h1.34v-6.7ZM630.8,843.8H618.745v12.068H630.8Zm2.68,22.794-4.019,5.363h-1.34c-.76,2.253,5.824,8.9,8.038,8.045V878.66c2.925-1.609,4.413-2.955,5.358-6.7-3.3-1.934-3.733-4.211-8.036-5.367Zm77.7,0-4.019,5.363h-1.34c-.76,2.253,5.824,8.9,8.038,8.045V878.66c2.925-1.609,4.413-2.955,5.358-6.7-3.3-1.934-3.735-4.211-8.038-5.367Zm17.415-20.3c-4.008.394-8.026.737-12.057.993v8.586h12.057Zm-6.7,16.283v1.34h1.34v1.341l4.019,1.341v-1.341c1.525-1.527.534,0,1.34-2.681h-6.7ZM727.254,880h-2.679l-1.34,2.682H721.9v1.341h6.7Q727.924,882.013,727.254,880Zm42.868,4.023v-1.341c-2.413-1.267-2.109-1.857-5.359-2.682v1.341c-1.525,1.528-.533,0-1.339,2.682h6.7Zm-5.359-17.431h2.68a5.337,5.337,0,0,1,2.679-2.682v-1.34h-6.7q.671,2.011,1.341,4.023Zm-29.471,30.839h1.339c1.265-2.415,1.855-2.111,2.68-5.363l-4.019-1.341v6.7Zm0-48.269v6.7h2.679q.669-2.012,1.34-4.023Zm7.954-4.629a12.286,12.286,0,0,0,4.1,1.947v-1.34a16.38,16.38,0,0,0,2.526-1.608q-3.306.531-6.626,1Zm13.48,4.629h-1.34v1.34h-1.34l-1.339,4.023h1.339c1.527,1.527,0,.534,2.68,1.341v-6.7Zm-6.7,13.408H741.99c-3.321,5.53-6.644,5.03-6.7,14.749,5.525,3.324,5.025,6.649,14.735,6.7,3.322-5.531,6.644-5.031,6.7-14.749a17.861,17.861,0,0,1-6.7-6.7Zm6.7,28.157-4.019,1.341v2.681l2.679,1.341v1.341h1.34v-6.7ZM775.48,843.8H763.424v12.068H775.48Zm2.679,22.794-4.018,5.363H772.8c-.76,2.253,5.824,8.9,8.038,8.045V878.66c2.925-1.609,4.413-2.955,5.358-6.7-3.3-1.934-3.733-4.211-8.037-5.367Zm38.849-38.883-4.018,5.363h-1.34c-.76,2.252,5.824,8.9,8.038,8.045v-1.341c2.925-1.609,4.413-2.955,5.358-6.7-3.3-1.935-3.734-4.213-8.038-5.368Zm12.057-6.793c-1.255.526-2.515,1.039-3.776,1.551l2.436,1.219v1.341h1.34Zm18.755-2.593H835.763v12.067H847.82V818.324Zm5.358,20.112H834.424c-2.055,3.309-1.536.828-4.019,2.682l-1.34,2.681-8.038,6.7v1.341h-5.358c-1.727-3.1-10.333-12.048-13.4-13.408H783.518V857.2c3.306,2.057.827,1.537,2.679,4.023l2.679,1.341q3.35,4.021,6.7,8.045h1.34v5.363c-5.655,3.269-8.546,9.409-13.4,13.408v10.388q13.036-8.048,25.449-17.124-.667-6.016-1.336-12.035h1.34v-6.705l12.056-1.34v1.34h6.7v4.171c.114-.1.231-.184.344-.279q13.085-10.853,25.109-22.716v-6.651ZM881.31,810.28q-.669-6.033-1.339-12.067h1.339v-4.639q-6.058,3.859-12.259,7.462c.079.662.145,1.472.2,2.54-3.094,1.728-12.037,10.342-13.4,13.408v18.771h6.494q11.753-12.367,22.388-25.711a26.273,26.273,0,0,1-3.423.235Zm3.829-19.2,8.228-.915v1.341h5.286q6.764-9.59,12.982-19.6-12.835,10.251-26.5,19.181Zm-419.111,19.2-12.056,1.341V810.28h-6.7q-.669-6.033-1.339-12.067h1.339v-6.7l12.057-1.341v1.341h6.7q.671,6.033,1.34,12.067h-1.34v6.7Zm-72.339-72.4-12.057,1.341V737.88h-6.7q-.671-6.033-1.34-12.067h1.34v-6.7l12.057-1.341V719.1h6.7q.669,6.033,1.339,12.067h-1.339v6.7Zm-18.755-453.2,12.057-1.34v1.34h6.7q.669,6.033,1.339,12.068h-1.339v6.7l-12.057,1.341v-1.341h-6.7q-.671-6.033-1.34-12.068h1.34Zm72.339-72.4,12.057-1.34v1.34h6.7q.671,6.033,1.34,12.068h-1.34v6.7l-12.056,1.341v-1.341h-6.7q-.669-6.033-1.339-12.068h1.339v-6.7ZM321.349,375.856l-12.056,1.34v-1.34h-6.7q-.669-6.033-1.339-12.068h1.339v-6.7l12.057-1.341v1.341h6.7q.671,6.033,1.34,12.068h-1.34v6.7Zm-72.339,72.4-12.057,1.34v-1.34h-6.7q-.671-6.034-1.34-12.068h1.34v-6.7l12.056-1.341v1.341h6.7q.669,6.033,1.339,12.067H249.01v6.7ZM230.255,719.1l12.056-1.341V719.1h6.7q.669,6.033,1.339,12.067h-1.34v6.7l-12.057,1.341v-1.341h-6.7q-.671-6.033-1.34-12.067h1.34v-6.7Zm91.094-53.633-12.056,1.341v-1.341h-6.7q-.669-6.033-1.339-12.067h1.339v-6.7l12.057-1.341V646.7h6.7q.671,6.033,1.34,12.067h-1.34v6.7Zm-72.339-79.1v6.7L236.953,594.4v-1.341h-6.7q-.671-6.033-1.34-12.067h1.34v-6.7l12.056-1.341V574.3h6.7q.669,6.033,1.339,12.067H249.01Zm72.339-65.7L309.293,522v-1.341h-6.7q-.669-6.033-1.339-12.067h1.339v-6.7l12.057-1.341v1.341h6.7q.671,6.033,1.34,12.067h-1.34v6.7ZM302.594,791.508l12.057-1.341v1.341h6.7q.671,6.033,1.34,12.067h-1.34v6.7L309.3,811.616v-1.341h-6.7q-.669-6.033-1.339-12.067H302.6v-6.7Zm368.4,104.583V894.75h5.358a37.521,37.521,0,0,0,4.537,5.616h-15.02Zm-144.679,0V894.75h5.358a37.522,37.522,0,0,0,4.537,5.616H521.19Zm-139.32-1.341a37.427,37.427,0,0,0,4.536,5.616H376.5c3.211-2.555,3.85-5.22,10.491-5.616Zm0-32.179v1.34h6.7q.669,6.035,1.339,12.068H393.7v6.7l-12.057,1.341v-1.341h-6.7q-.671-6.033-1.34-12.067h1.34v-6.705Zm144.678,0v1.34h6.7q.669,6.035,1.339,12.068h-1.339v6.7l-12.057,1.341v-1.341h-6.7l-1.34-12.067h1.34v-6.705Zm144.679,0v1.34h6.7l1.34,12.068h-1.34v6.7L671,884.02v-1.341h-6.7q-.671-6.033-1.34-12.067h1.34v-6.705Z" transform="translate(-11050 9513.816)" fill="#fff" fill-rule="evenodd" opacity="0.604"/>
    <path id="Lantern-03" transform="translate(-10202.031 9412)" fill="#fff" fill-rule="evenodd" opacity="0.422"/>
    
    
  </g>
<script xmlns="">window.c_UUID = 'f7db5f56-cc45-4c5d-a7ff-8d48262a0ec9';</script></svg>