<svg xmlns="http://www.w3.org/2000/svg" width="1532.25" height="1002.183" viewBox="0 0 1532.25 1002.183" style="/*! background: red; */">
  <g id="Group_3916" data-name="Group 3916" transform="translate(10874.232 -9412)">
    <path id="Mosque" d="M918.328,762.407s-1.7-11.327-4.58-17.874c-3.733-8.39-11.174-16.391-19.66-23.334a182.749,182.749,0,0,0-24.845-16.842,19.627,19.627,0,0,0,.773-4.255,13.66,13.66,0,0,0-1.172-6.522,17.619,17.619,0,0,0-5.546-6.345,53.355,53.355,0,0,0-6.287-4.075l-.2-3.891a4.635,4.635,0,0,0,1.173-1.432,4.339,4.339,0,0,0,.52-2.118,4.082,4.082,0,0,0-.616-2.2,3.99,3.99,0,0,0-1.381-1.437l-.139-3.384a6.656,6.656,0,0,0,.9-1.083,3.5,3.5,0,0,0,.412-1.7,3.693,3.693,0,0,0-.513-1.8,3.368,3.368,0,0,0-1.071-1.155l-.158-3.61-1.249-27.318a.642.642,0,0,0-.6-.64.634.634,0,0,0-.646.64l-1.224,27.318-.145,3.61a2.631,2.631,0,0,0-1.046,1.155,3.18,3.18,0,0,0-.533,1.8,3.528,3.528,0,0,0,.457,1.7,3.651,3.651,0,0,0,.817,1.083l-.075,3.384a3.332,3.332,0,0,0-1.408,1.437,4.118,4.118,0,0,0-.659,2.2,4.522,4.522,0,0,0,.526,2.1,4.288,4.288,0,0,0,1.172,1.448l-.209,3.891a59.941,59.941,0,0,0-6.293,4.075c-2.288,1.839-4.507,3.976-5.564,6.345v.04a14.809,14.809,0,0,0-1.116,6.482,18.745,18.745,0,0,0,.741,4.255c-4.556,2.6-9.754,5.839-14.988,9.473V701.166l4.48-3.6-.006-15.7H823.6l-.026-26.472,3.866-3.068V638.2h-5.869V624.04l2.99-2.04v-8.425h-2.953V601.544L817.76,597.1l-1.267-8.907-.165-1.14c-.108-.772-.152.317-.184.558l-1.514,9.321-4.183,4.524-.1,12.133H807v8.477l2.858,2-.04,14.129h-5.856v14.169l3.942,2.878.083,11.535.095,13.022v1.912l-3.822.118a23.044,23.044,0,0,0-1.908-9.945c-1.508-3.5-4.633-6.8-8.1-9.638a75.814,75.814,0,0,0-10.287-7,8.178,8.178,0,0,0,.3-1.764,5.6,5.6,0,0,0-.456-2.653l-.007-.041a7.443,7.443,0,0,0-2.313-2.593,17.4,17.4,0,0,0-2.63-1.7l-.025-1.646a1.526,1.526,0,0,0,.456-.574,1.566,1.566,0,0,0,.215-.842,1.823,1.823,0,0,0-.247-.94,1.759,1.759,0,0,0-.577-.58l-.076-1.431a1.082,1.082,0,0,0,.361-.415,1.223,1.223,0,0,0,.165-.709,1.674,1.674,0,0,0-.171-.763,1.474,1.474,0,0,0-.463-.449l-.057-1.488-.5-11.329a.245.245,0,0,0-.247-.231.232.232,0,0,0-.267.231l-.527,11.324-.05,1.488a1.3,1.3,0,0,0-.45.449,1.557,1.557,0,0,0-.2.763,1.626,1.626,0,0,0,.165.709,1.456,1.456,0,0,0,.361.415l-.07,1.431a1.5,1.5,0,0,0-.538.58,1.922,1.922,0,0,0-.292.94,1.7,1.7,0,0,0,.222.842,2.276,2.276,0,0,0,.469.574l-.044,1.646a19.086,19.086,0,0,0-2.631,1.7,7.415,7.415,0,0,0-2.281,2.593,6.193,6.193,0,0,0-.476,2.694,5.91,5.91,0,0,0,.311,1.764,72.3,72.3,0,0,0-10.286,7c-3.5,2.834-6.579,6.135-8.119,9.638a24.056,24.056,0,0,0-1.711,12.624,2.716,2.716,0,0,0-1.217.987,5.51,5.51,0,0,0-.862,2.255,6.04,6.04,0,0,0-.862-2.255,2.356,2.356,0,0,0-1.787-1.181A2.256,2.256,0,0,0,744.8,685.5a5.224,5.224,0,0,0-.881,2.255,6.82,6.82,0,0,0-.85-2.255,2.6,2.6,0,0,0-1.5-1.08l-.039-5.49-.392-58.793h1.787a3.783,3.783,0,0,0,3.79-3.777,3.732,3.732,0,0,0-2.928-3.584v-11.7l.051-.45a14.471,14.471,0,0,1-.051-1.456v-4.081h1.584a1.93,1.93,0,0,0,0-3.86H742.9a21.264,21.264,0,0,0-.3-15.343c-1.255-2.869-3.8-5.588-6.692-7.966a62.29,62.29,0,0,0-8.474-5.731,6.676,6.676,0,0,0,.26-1.463,4.9,4.9,0,0,0-.4-2.188v-.025a6.106,6.106,0,0,0-1.888-2.163,19.47,19.47,0,0,0-2.161-1.387l-.057-1.332a1.466,1.466,0,0,0,.417-.5,1.636,1.636,0,0,0,.153-.69,1.41,1.41,0,0,0-.2-.766,1.321,1.321,0,0,0-.475-.5l-.038-1.137a4.132,4.132,0,0,0,.292-.367,1.026,1.026,0,0,0,.138-.583,1.455,1.455,0,0,0-.158-.614,1.331,1.331,0,0,0-.361-.4l-.063-1.232-.425-9.346a.177.177,0,0,0-.184-.175.216.216,0,0,0-.247.175l-.412,9.346-.057,1.232a1.108,1.108,0,0,0-.355.4,1.172,1.172,0,0,0-.171.614,1.468,1.468,0,0,0,.146.583,1.29,1.29,0,0,0,.3.367l-.064,1.137a1.791,1.791,0,0,0-.45.5,1.365,1.365,0,0,0-.222.766,1.465,1.465,0,0,0,.178.69,1.511,1.511,0,0,0,.406.5l-.083,1.332a19.962,19.962,0,0,0-2.13,1.387,5.67,5.67,0,0,0-1.9,2.163,5.392,5.392,0,0,0-.418,2.213,6.514,6.514,0,0,0,.292,1.463,60.772,60.772,0,0,0-8.493,5.731c-2.858,2.378-5.413,5.1-6.7,7.966a21.359,21.359,0,0,0-.3,15.343H700.02a1.93,1.93,0,0,0,0,3.86h1.54v17.7a3.724,3.724,0,0,0-2.871,3.575,3.777,3.777,0,0,0,3.783,3.777h1.781l-.317,45.587a38.367,38.367,0,0,0-2.275-6.8c-2.662-6-7.979-11.728-14.057-16.692a129.741,129.741,0,0,0-17.778-12.048,14.187,14.187,0,0,0,.557-3.046,9.816,9.816,0,0,0-.842-4.673,12.569,12.569,0,0,0-3.968-4.54,36.144,36.144,0,0,0-4.506-2.91l-.14-2.786a3.254,3.254,0,0,0,1.217-2.536,2.911,2.911,0,0,0-.443-1.574,2.837,2.837,0,0,0-.989-1.029l-.1-2.429a4.734,4.734,0,0,0,.64-.766,2.442,2.442,0,0,0,.31-1.213,2.629,2.629,0,0,0-.373-1.288,2.481,2.481,0,0,0-.767-.826l-.108-2.593-.9-19.542a.447.447,0,1,0-.894,0l-.868,19.542-.108,2.593a1.9,1.9,0,0,0-.754.826,2.283,2.283,0,0,0-.381,1.288,2.586,2.586,0,0,0,.324,1.213,2.717,2.717,0,0,0,.59.766l-.057,2.429a2.394,2.394,0,0,0-1.008,1.029,3.042,3.042,0,0,0-.476,1.574,3.185,3.185,0,0,0,.387,1.5,2.959,2.959,0,0,0,.83,1.039l-.139,2.786a42.736,42.736,0,0,0-4.507,2.91,13.445,13.445,0,0,0-3.974,4.54v.028a10.452,10.452,0,0,0-.811,4.638,13.155,13.155,0,0,0,.533,3.046,129.335,129.335,0,0,0-17.772,12.048,69.371,69.371,0,0,0-7.1,6.7c2.732-12.5,3.81-29.885-3.961-47.559-4.747-10.727-14.272-20.948-25.054-29.8a238.308,238.308,0,0,0-31.8-21.556,21.2,21.2,0,0,0,.989-5.421,18.262,18.262,0,0,0-1.438-8.257l-.039-.05c-1.274-2.977-4.056-5.731-7.1-8.109a60.371,60.371,0,0,0-8.012-5.2l-.253-5.037a5.15,5.15,0,0,0,1.477-1.748,5.652,5.652,0,0,0,.659-2.66,5.451,5.451,0,0,0-.779-2.878,5.9,5.9,0,0,0-1.744-1.862l-.221-4.3a4.084,4.084,0,0,0,1.128-1.389,4.468,4.468,0,0,0,.539-2.147,4.682,4.682,0,0,0-1.978-3.765l-.2-4.575-1.572-34.971a.837.837,0,0,0-.791-.757.747.747,0,0,0-.793.757l-1.6,34.971-.2,4.575a3.962,3.962,0,0,0-1.343,1.447,4.192,4.192,0,0,0-.66,2.318,4.631,4.631,0,0,0,.539,2.147,4.95,4.95,0,0,0,1.116,1.389l-.172,4.3a5.267,5.267,0,0,0-1.767,1.862,5.469,5.469,0,0,0-.818,2.878,5.7,5.7,0,0,0,2.149,4.408l-.222,5.037a60.186,60.186,0,0,0-8.062,5.2c-3,2.378-5.787,5.132-7.1,8.109a18.572,18.572,0,0,0-1.457,8.307,22.829,22.829,0,0,0,.957,5.421A239.313,239.313,0,0,0,491.9,571.573c-10.78,8.849-20.35,19.07-25.066,29.8-8.436,19.162-6.465,38-3.251,50.611v1.083a60.948,60.948,0,0,0-10.521-10.837,130.1,130.1,0,0,0-17.778-12.048,14.119,14.119,0,0,0,.558-3.046A9.819,9.819,0,0,0,435,622.46a12.647,12.647,0,0,0-3.974-4.54,36.483,36.483,0,0,0-4.5-2.91l-.145-2.786a3.091,3.091,0,0,0,.843-1.023,3.16,3.16,0,0,0,.374-1.513,3.015,3.015,0,0,0-.438-1.574,2.788,2.788,0,0,0-1-1.029l-.1-2.429a4.721,4.721,0,0,0,.647-.766,2.5,2.5,0,0,0,.3-1.213,2.63,2.63,0,0,0-.374-1.288,2.4,2.4,0,0,0-.767-.826l-.107-2.593-.9-19.542a.444.444,0,1,0-.887,0L423.1,597.97l-.108,2.593a1.9,1.9,0,0,0-.748.826,2.248,2.248,0,0,0-.386,1.288,2.6,2.6,0,0,0,.323,1.213,2.824,2.824,0,0,0,.583.766l-.044,2.429a2.373,2.373,0,0,0-1.008,1.029,2.986,2.986,0,0,0-.475,1.574,3.181,3.181,0,0,0,.38,1.5,2.967,2.967,0,0,0,.837,1.039l-.146,2.786a42.01,42.01,0,0,0-4.5,2.91,13.3,13.3,0,0,0-3.98,4.54v.037a10.441,10.441,0,0,0-.805,4.638,13.224,13.224,0,0,0,.519,3.046,129.621,129.621,0,0,0-17.758,12.048c-4.424,3.613-11.314,11.85-11.314,11.85s46.155,121.906,209.174,177.2C791.37,885.16,918.328,762.407,918.328,762.407ZM736.832,605.73a1.62,1.62,0,0,1,.393-1.247,1.689,1.689,0,0,0,.114-1.882c-1.2-3.384,2.713-4.049,4.988-5.68,1.287,1.273.938,3.242.076,5.68a1.7,1.7,0,0,0,.083,1.882,1.728,1.728,0,0,1,.431,1.247v6.87h-6.085Zm-21.131,0a1.732,1.732,0,0,1,.432-1.247,1.735,1.735,0,0,0,.076-1.882c-1.572-4.407,5.577-4.2,6.426-7.516h.065c.868,3.318,7.973,3.109,6.445,7.516a1.7,1.7,0,0,0,.038,1.882,1.742,1.742,0,0,1,.47,1.247v6.87H715.7v-6.87Zm-13.233,6.87v-6.87a1.779,1.779,0,0,1,.425-1.247,1.687,1.687,0,0,0,.082-1.882c-.849-2.4-1.172-4.366.064-5.645,2.275,1.6,6.154,2.286,4.969,5.645a1.709,1.709,0,0,0,.082,1.882,1.7,1.7,0,0,1,.424,1.247v6.87h-6.046Z" transform="translate(-11050 9513.816)" fill-rule="evenodd" opacity="0.2"/>
    <path id="Moon" transform="translate(-11050 9513.816)" fill="#fff" fill-rule="evenodd" opacity="0.604"/>
    <path id="Lantern-03" transform="translate(-10202.031 9412)" fill="#fff" fill-rule="evenodd" opacity="0.422"/>
    
    
  </g>
</svg>