<svg xmlns="http://www.w3.org/2000/svg" width="14.624" height="16.713" viewBox="0 0 14.624 16.713">
  <path id="Icon_awesome-percent" data-name="Icon awesome-percent" d="M3.656,7.312A3.656,3.656,0,1,0,0,3.656,3.654,3.654,0,0,0,3.656,7.312Zm0-5.223A1.567,1.567,0,1,1,2.089,3.656,1.567,1.567,0,0,1,3.656,2.089ZM10.968,9.4a3.656,3.656,0,1,0,3.656,3.656A3.654,3.654,0,0,0,10.968,9.4Zm0,5.223a1.567,1.567,0,1,1,1.567-1.567A1.567,1.567,0,0,1,10.968,14.624ZM12.805.007l1.031,0a.783.783,0,0,1,.643,1.234L2.526,16.373a.782.782,0,0,1-.64.333l-1.09,0a.783.783,0,0,1-.643-1.234L12.166.339A.782.782,0,0,1,12.805.007Z" fill="#ba1e74"/>
</svg>
