<svg xmlns="http://www.w3.org/2000/svg" width="61.043" height="293.047" viewBox="0 0 61.043 293.047">
  <path id="Lantern-02" d="M731.016,289.557a1.745,1.745,0,1,1-1.76,1.744A1.745,1.745,0,0,1,731.016,289.557Zm-1.758-85.839c-3.893.06-7.849.331-11.792.418q-.173,1.311-.367,2.62,12.762,0,25.522.054c-.075-1.035-.147-2.069-.208-3.1-4.384-.044-8.768-.059-13.155.008ZM742.1,185.237c2.531,5.482,2.3,11.47,1.667,17.4q5.474.047,10.943.148c2.472-4.167,4.867-9.228,2.448-13.882-2-3.843-5.5-6.35-9.408-8.061-5.527-2.419-13.161-3.2-15.8-9.226C732.392,177.841,739.633,179.889,742.1,185.237Zm-35.329,17.4a71.731,71.731,0,0,0,9.887.455c-.921-6.08-1.7-13.246,2.173-18.635,3.113-4.328,8.268-7.408,10.668-12.189a22.338,22.338,0,0,1-5.65,3.564c-3.7,1.829-7.651,3.159-11.251,5.189-3.707,2.091-7.727,5.034-8.992,9.319a12.044,12.044,0,0,0,3.13,12.242.469.469,0,0,1,.036.055Zm48.1,1.211c-3.866-.046-7.731-.1-11.6-.141q.128,1.55.233,3.1,7.144.027,14.29.066c-.015-1,.067-2.025.124-3.024a23.769,23.769,0,0,1-2.771-.093.453.453,0,0,1-.276.092ZM721.764,182.3c-5.645,6.068-5.2,13.172-4.229,20.753a.13.13,0,0,1,0,.028c4.62-.089,9.257-.4,13.841-.441q5.713-.054,11.426-.005c.691-6.8,1.17-14.8-3.745-20.1-3.1-3.345-7.653-6.157-8.26-10.9C728.991,176.024,724.974,178.849,721.764,182.3Zm.869,79.78q8.379-.072,16.762-.025-.023-.889-.018-1.78-8.353.077-16.717-.026c0,.609-.014,1.219-.027,1.83Zm27.867.12c0-.708.033-1.422.061-2.129-3.419.1-6.848.156-10.28.193q.006.9-.018,1.8Q745.392,262.1,750.5,262.2Zm-40.009.012q5.644-.078,11.3-.129c-.013-.615-.024-1.229-.027-1.844q-5.685-.069-11.351-.185c.037.72.06,1.439.087,2.159Zm29.5,1.083q-8.708.06-17.421-.023a16.628,16.628,0,0,0,1.657,15.647c2.109,3.239,6.192,5.865,6.861,9.835v.026h.012c.579-4.1,3.56-6.645,6.263-9.528,4.317-4.6,4.884-10.169,2.627-15.952Zm-9.884,25.574c-.62-3.031-3.408-4.844-5.188-7.2a25.5,25.5,0,0,1-3.438-6.034,16.335,16.335,0,0,1,.168-12.366q-5.429-.05-10.85-.125c-2.652,3.858-4.094,7.836-1.216,12.12,2.258,3.36,5,4.883,8.909,5.73,5.048,1.1,9.706,2.679,11.551,7.886a.622.622,0,0,1,.063-.01Zm-26.152-84.89c.056.923.108,1.846.161,2.769q6.052,0,12.106.006.188-1.3.4-2.608a58.419,58.419,0,0,1-10.043-.573.487.487,0,0,1-.184.053c-.582.045-1.165.05-1.746.056-.288,0-.585-.014-.872.006.194-.036.255.061.177.292Zm-3.662,3.69a121.782,121.782,0,0,0,2.314,12.808c1.112,4.192,2.424,8.483,3.275,12.749,1.733,8.682,3.261,17.163,4.523,25.923.611-.013,1.227-.02,1.839-.032-2.064-10.17-4.18-20.334-6.139-30.524a13.523,13.523,0,0,1,.023-5.415c.3-1.7-1.762-2.335-1.859-3.86a4.31,4.31,0,0,1,1.472-3.341,17.674,17.674,0,0,0,3.65-5.542c.219-.54,1.081-.39.852.2,0,.012-.01.023-.015.036,1.581,2.812,6.308,3.368,7.047,6.694a3.632,3.632,0,0,1,.112,1.784c-.213.777-1.244,2.489-.754,3.2a8.986,8.986,0,0,1,1.506,4.79,293.635,293.635,0,0,0,3.75,31.749.4.4,0,0,1,0,.085c.752-.009,1.5-.012,2.256-.02a.044.044,0,0,0,0-.011c-.485-6.468-.953-12.937-1.44-19.4a55.928,55.928,0,0,0-1.473-8.608,12.932,12.932,0,0,1-.375-6.091,8.393,8.393,0,0,1,1.259-2.8c.939-1.363.29-1.264-.734-2.012a2.12,2.12,0,0,1-.9-2.417c.229-1.332,2.019-2.05,3.09-2.481,2.327-.937,4.752-1.726,6.139-3.837-.04-.041-.083-.078-.123-.12a.453.453,0,0,1,.574-.68c0-.01.011-.017.016-.027a.417.417,0,0,1,.774.3c-.038.094-.092.179-.133.271A21.593,21.593,0,0,0,737.294,215a3.683,3.683,0,0,1,2.526,2.517,3.945,3.945,0,0,1-.81,3.555c-.173.2,1.2,4.177,1.257,4.778a32.633,32.633,0,0,1-.549,6.757c-.378,3.024-.731,6.052-1.037,9.084q-.869,8.594-1.384,17.215c.524,0,1.046.013,1.57.017a.456.456,0,0,1-.009-.136q1.308-10.082,2.626-20.162c.73-5.6.856-11.732,2.616-17.127a.456.456,0,0,1,.4-.326c-.1-1.073-.976-1.974-.927-3.188a6.24,6.24,0,0,1,1.265-2.813c1.507-2.325,4.564-2.354,6.138-4.692a.411.411,0,0,1,.769.258.451.451,0,0,1,.012.12c-.2,2.435,2.947,2.427,3.986,3.907a5.609,5.609,0,0,1,1.015,2.436c.336,1.908-.744,3.74-1.962,5.124a.4.4,0,0,1,.069.092c.987,2.081.75,4.187.33,6.4q-.944,4.956-1.963,9.9-2.133,10.23-4.635,20.376c.54.014,1.08.022,1.62.037,2.454-8.513,3.959-17.33,5.782-25.994,1.767-8.4,3.447-16.827,5.336-25.2-20.312.418-40.743.313-61.043-.265Zm49.932,55.493c-3.077.065-6.158.1-9.24.126,1.555,3.9,2.1,8.873.017,12.666-1.809,3.287-5.216,5.645-7.295,8.732,2.214-2.052,5.792-3.141,8.363-4.032,3.117-1.081,7.063-2.557,9.14-5.3,2.626-3.473,1.761-8.96-.928-12.085a.37.37,0,0,1-.058-.106ZM730.8,157.446A8.557,8.557,0,1,1,722.217,166a8.557,8.557,0,0,1,8.583-8.554Zm.008,3.209a5.357,5.357,0,1,1-5.356,5.357,5.357,5.357,0,0,1,5.356-5.357ZM729.226,0h2.124V158.357h-2.124Z" transform="translate(-700.292)" fill="#18305c" fill-rule="evenodd" opacity="0.6"/>
</svg>
