<svg xmlns="http://www.w3.org/2000/svg" width="85.585" height="555.834" viewBox="0 0 85.585 555.834">
  <path id="Lantern-03" d="M817.476,550.834a2.5,2.5,0,1,1-2.533,2.5,2.5,2.5,0,0,1,2.533-2.5Zm-2.4-120.252c-5.458.084-11,.464-16.533.587q-.242,1.838-.514,3.672,17.893.007,35.783.076c-.106-1.45-.207-2.9-.293-4.351-6.147-.057-12.294-.078-18.444.016Zm18.006-25.911c3.548,7.687,3.219,16.081,2.338,24.4q7.673.065,15.341.208c3.466-5.843,6.824-12.939,3.433-19.463-2.8-5.388-7.709-8.9-13.19-11.3-7.749-3.392-18.452-4.487-22.148-12.936.614,8.72,10.764,11.594,14.225,19.091Zm-49.532,24.4a100.66,100.66,0,0,0,13.863.638c-1.292-8.525-2.388-18.572,3.045-26.127,4.365-6.068,11.593-10.387,14.957-17.089-2.247,2.209-5.6,3.847-7.921,5-5.186,2.565-10.727,4.43-15.774,7.276-5.2,2.931-10.833,7.057-12.608,13.065A16.888,16.888,0,0,0,783.5,429a.468.468,0,0,1,.049.074Zm67.436,1.7c-5.42-.064-10.839-.143-16.258-.2q.179,2.172.327,4.349,10.019.037,20.035.093c-.021-1.408.094-2.839.173-4.24a33.4,33.4,0,0,1-3.884-.13.642.642,0,0,1-.394.128Zm-46.417-30.218c-7.914,8.507-7.292,18.467-5.928,29.1v.04c6.477-.126,12.978-.56,19.405-.62q8.011-.075,16.02-.007c.968-9.538,1.639-20.749-5.252-28.187-4.344-4.689-10.729-8.632-11.58-15.284-2.534,6.16-8.166,10.121-12.666,14.958Zm1.219,111.852q11.748-.1,23.5-.034c-.02-.831-.03-1.663-.023-2.5q-11.712.108-23.439-.037c-.006.866-.021,1.716-.039,2.571Zm39.075.172c0-.992.046-1.993.085-2.985-4.793.142-9.6.22-14.411.271q.008,1.258-.026,2.518c4.789.035,9.573.091,14.351.2Zm-56.093.016q7.912-.108,15.844-.18c-.018-.861-.034-1.723-.038-2.585q-7.971-.1-15.914-.26c.044,1.008.076,2.017.107,3.025Zm41.352,1.519q-12.207.084-24.424-.032c-3.112,7.216-1.932,15.4,2.323,21.937,2.956,4.541,8.682,8.223,9.619,13.79v.036h.019c.812-5.75,4.992-9.318,8.781-13.36,6.051-6.455,6.847-14.257,3.681-22.371Zm-13.857,35.856c-.869-4.249-4.778-6.791-7.274-10.1a35.646,35.646,0,0,1-4.819-8.459,22.891,22.891,0,0,1,.235-17.337Q796.8,514,789.2,513.9c-3.719,5.408-5.741,10.986-1.7,16.993,3.165,4.71,7.013,6.845,12.49,8.033,7.078,1.535,13.608,3.755,16.2,11.056.02-.005.055-.006.084-.011ZM779.6,430.949q.117,1.941.225,3.884c5.656-.007,11.315.006,16.973.008q.262-1.83.556-3.657a82.017,82.017,0,0,1-14.08-.8.663.663,0,0,1-.259.073c-.815.063-1.632.07-2.447.079-.4,0-.82-.02-1.222.009Q779.76,430.464,779.6,430.949Zm-5.135,5.174a170.812,170.812,0,0,0,3.244,17.957c1.559,5.877,3.4,11.894,4.592,17.875,2.429,12.172,4.572,24.063,6.341,36.345.857-.018,1.72-.029,2.578-.045-2.893-14.259-5.86-28.509-8.606-42.8a18.952,18.952,0,0,1,.032-7.592c.425-2.387-2.47-3.274-2.607-5.411a6.049,6.049,0,0,1,2.063-4.685A24.726,24.726,0,0,0,787.219,440c.308-.755,1.516-.545,1.195.275l-.021.051c2.217,3.943,8.844,4.723,9.88,9.386a5.1,5.1,0,0,1,.157,2.5c-.3,1.089-1.744,3.489-1.057,4.48a12.6,12.6,0,0,1,2.112,6.716,411.576,411.576,0,0,0,5.257,44.512.592.592,0,0,1,0,.12c1.054-.013,2.109-.018,3.164-.029a.062.062,0,0,1,0-.015c-.681-9.068-1.337-18.139-2.02-27.207a78.409,78.409,0,0,0-2.064-12.068c-.632-2.728-1.259-5.754-.526-8.54a11.756,11.756,0,0,1,1.764-3.925c1.318-1.91.406-1.771-1.029-2.82a2.971,2.971,0,0,1-1.256-3.389c.321-1.867,2.831-2.874,4.333-3.478,3.261-1.314,6.662-2.421,8.606-5.38-.056-.058-.116-.11-.172-.169a.634.634,0,0,1,.8-.952c.006-.014.015-.025.021-.038a.585.585,0,0,1,1.087.426c-.054.132-.129.25-.187.38a30.3,30.3,0,0,0,9.08,5.567c1.577.613,3.205,1.72,3.542,3.529a5.529,5.529,0,0,1-1.135,4.984c-.242.279,1.689,5.857,1.762,6.7.273,3.144-.383,6.368-.77,9.474-.529,4.24-1.025,8.485-1.454,12.736q-1.216,12.049-1.94,24.135h0c.734,0,1.467.018,2.2.024a.687.687,0,0,1-.012-.191q1.833-14.135,3.681-28.267c1.024-7.854,1.2-16.45,3.668-24.013a.641.641,0,0,1,.555-.457c-.145-1.5-1.368-2.767-1.3-4.47.057-1.4,1.052-2.829,1.774-3.944,2.113-3.26,6.4-3.3,8.606-6.577a.575.575,0,0,1,1.077.361.6.6,0,0,1,.017.168c-.283,3.413,4.131,3.4,5.589,5.477a7.887,7.887,0,0,1,1.423,3.416c.471,2.675-1.043,5.244-2.751,7.184a.572.572,0,0,1,.1.129c1.383,2.917,1.051,5.87.462,8.966q-1.322,6.948-2.752,13.875-2.989,14.343-6.5,28.568c.756.018,1.515.03,2.271.051,3.441-11.936,5.55-24.3,8.107-36.445,2.478-11.778,4.833-23.591,7.481-35.332-28.479.6-57.124.45-85.585-.361Zm70.006,77.8c-4.314.091-8.634.141-12.955.176,2.181,5.475,2.949,12.441.023,17.759-2.535,4.609-7.312,7.914-10.227,12.242,3.1-2.877,8.121-4.4,11.725-5.653,4.371-1.516,9.9-3.584,12.815-7.433,3.682-4.87,2.469-12.562-1.3-16.944a.559.559,0,0,1-.082-.144ZM817.249,371.36a8.6,8.6,0,1,1-8.587,8.6,8.6,8.6,0,0,1,8.587-8.6Zm.015,3.246a5.356,5.356,0,1,1-5.355,5.356,5.356,5.356,0,0,1,5.355-5.356ZM815.671,0H817.8V371.845h-2.124V0Z" transform="translate(-774.464)" fill="#18305c" fill-rule="evenodd" opacity="0.6"/>
</svg>
